<svg width="62" height="55" viewBox="0 0 62 55" fill="none" xmlns="http://www.w3.org/2000/svg">
<path d="M16.2109 15.7962C16.2109 24.5203 23.2831 31.5925 32.0072 31.5925C40.7312 31.5925 47.8034 24.5203 47.8034 15.7962C47.8034 7.0722 40.7312 0 32.0072 0C23.2874 0.00977414 16.2207 7.07648 16.2109 15.7962ZM32.0072 16.7944C29.3859 16.8091 27.1647 14.8677 26.8293 12.2678C26.4939 9.66846 28.1494 7.22614 30.6889 6.57555V5.24016C30.6889 4.63539 31.1788 4.14546 31.7836 4.14546C32.3884 4.14546 32.8783 4.63539 32.8783 5.24016V6.50897C35.3621 6.92925 37.1752 9.08873 37.1594 11.6086C37.1594 12.2061 36.6749 12.6905 36.0775 12.6905C35.48 12.6905 34.9956 12.2061 34.9956 11.6086C34.9938 9.95496 33.6523 8.6159 31.9986 8.61774C30.345 8.61957 29.0059 9.96168 29.0083 11.6153C29.0102 13.2684 30.3523 14.6075 32.0059 14.605C34.6871 14.6203 36.9138 16.6777 37.1404 19.3497C37.3671 22.0211 35.5185 24.4244 32.8783 24.8911V26.1959C32.8783 26.8007 32.3884 27.2906 31.7836 27.2906C31.1788 27.2906 30.6889 26.8007 30.6889 26.1959V24.8239C28.4011 24.2197 26.8024 22.1574 26.7872 19.7914C26.7872 19.1799 27.2832 18.6839 27.8947 18.6839C28.5062 18.6839 29.0022 19.1799 29.0022 19.7914C29.0059 21.3205 30.158 22.6027 31.6779 22.7695C31.7341 22.7603 31.7915 22.756 31.8489 22.7554C31.9314 22.7554 32.0133 22.7652 32.0939 22.7835C33.736 22.7432 35.039 21.3883 35.0152 19.7462C34.9913 18.1035 33.6492 16.7871 32.0072 16.7944Z" fill="black" fill-opacity="0.5"/>
<path d="M57.3571 39.1237C57.3491 39.1279 57.3406 39.1322 57.3314 39.1365L47.1693 43.9374C47.2787 44.5 47.3263 45.0724 47.3111 45.6454C47.2952 46.238 46.8101 46.7102 46.2176 46.7102C46.2072 46.7102 46.1968 46.7102 46.1864 46.7102L31.3139 46.3009C30.7091 46.2844 30.2326 45.7811 30.2491 45.1763C30.2656 44.5715 30.7696 44.095 31.3737 44.1115L45.0447 44.4878C44.5914 41.8384 42.3324 39.8763 39.6457 39.7981L30.5985 39.5494C28.8117 39.4981 27.0597 39.0455 25.472 38.225L24.5514 37.7486C20.0302 35.393 14.5824 35.6997 10.3544 38.5482L9.99219 51.7097L11.5469 50.8771C13.0918 50.0463 14.8994 49.8483 16.5879 50.3254L31.9418 54.6352C34.901 55.2412 37.9762 54.8979 40.7288 53.6529L62.0004 39.8934C60.7866 38.6508 58.9069 38.3387 57.3571 39.1237Z" fill="black" fill-opacity="0.5"/>
<path d="M0 53.994L0.53941 34.4121L8.27198 34.6253L7.73256 54.2072L0 53.994Z" fill="black" fill-opacity="0.5"/>
</svg>
