<svg width="52" height="52" viewBox="0 0 52 52" fill="none" xmlns="http://www.w3.org/2000/svg">
<circle cx="26" cy="26" r="26" fill="#E2BC72" fill-opacity="0.2"/>
<path d="M11 23C10.9996 22.7373 11.0511 22.477 11.1515 22.2342C11.2519 21.9914 11.3992 21.7708 11.585 21.585C11.7708 21.3992 11.9914 21.2519 12.2342 21.1515C12.477 21.0511 12.7373 20.9997 13 21H13.855C13.6196 21.8125 13.5001 22.6541 13.5 23.5C13.5002 24.0028 13.5437 24.5047 13.63 25H13C12.7373 25.0001 12.4772 24.9484 12.2346 24.8479C11.9919 24.7474 11.7714 24.6001 11.5856 24.4144C11.3999 24.2287 11.2526 24.0081 11.1521 23.7655C11.0516 23.5228 10.9999 23.2627 11 23ZM34 25V23C34.0001 22.7373 33.9484 22.4772 33.8479 22.2346C33.7474 21.9919 33.6001 21.7714 33.4144 21.5856C33.2287 21.3999 33.0082 21.2526 32.7655 21.1521C32.5228 21.0516 32.2627 20.9999 32 21H31.145C31.3804 21.8125 31.4999 22.6541 31.5 23.5C31.4998 24.0028 31.4563 24.5047 31.37 25H34ZM27.27 25C27.4233 24.5148 27.5008 24.0089 27.5 23.5C27.5 22.1739 26.9732 20.9022 26.0356 19.9645C25.0979 19.0268 23.8261 18.5 22.5 18.5C21.1739 18.5 19.9022 19.0268 18.9645 19.9645C18.0268 20.9022 17.5 22.1739 17.5 23.5C17.4992 24.0089 17.5768 24.5148 17.73 25H23.455C23.4853 24.9202 23.5005 24.8354 23.5 24.75C23.5001 24.6515 23.4808 24.5539 23.4432 24.4628C23.4055 24.3718 23.3503 24.2891 23.2806 24.2194C23.211 24.1497 23.1282 24.0945 23.0372 24.0568C22.9461 24.0192 22.8485 23.9999 22.75 24H22.25C21.808 24.0009 21.3821 23.8341 21.0582 23.5333C20.7343 23.2324 20.5366 22.82 20.5048 22.3791C20.4731 21.9382 20.6098 21.5017 20.8873 21.1576C21.1648 20.8135 21.5624 20.5874 22 20.525V20C22 19.8674 22.0527 19.7402 22.1465 19.6465C22.2402 19.5527 22.3674 19.5 22.5 19.5C22.6326 19.5 22.7598 19.5527 22.8536 19.6465C22.9473 19.7402 23 19.8674 23 20V20.5H24C24.1326 20.5 24.2598 20.5527 24.3536 20.6465C24.4473 20.7402 24.5 20.8674 24.5 21C24.5 21.1326 24.4473 21.2598 24.3536 21.3536C24.2598 21.4473 24.1326 21.5 24 21.5H22.25C22.0511 21.5 21.8603 21.579 21.7197 21.7197C21.579 21.8603 21.5 22.0511 21.5 22.25C21.5 22.4489 21.579 22.6397 21.7197 22.7803C21.8603 22.921 22.0511 23 22.25 23H22.75C23.214 23.0005 23.6588 23.1851 23.9869 23.5131C24.315 23.8412 24.4995 24.286 24.5 24.75C24.501 24.8338 24.4943 24.9175 24.48 25H27.27ZM16.69 25C16.4614 24.1135 16.4388 23.1864 16.6238 22.2897C16.8087 21.3931 17.1965 20.5507 17.7572 19.827C18.318 19.1033 19.037 18.5175 19.859 18.1145C20.6811 17.7116 21.5845 17.502 22.5 17.502C23.4155 17.502 24.3189 17.7116 25.141 18.1145C25.9631 18.5175 26.682 19.1033 27.2428 19.827C27.8036 20.5507 28.1913 21.3931 28.3763 22.2897C28.5613 23.1864 28.5386 24.1135 28.31 25H30.355C30.4517 24.5059 30.5003 24.0035 30.5 23.5C30.5 21.3783 29.6572 19.3434 28.1569 17.8432C26.6566 16.3429 24.6217 15.5 22.5 15.5C20.3783 15.5 18.3434 16.3429 16.8432 17.8432C15.3429 19.3434 14.5 21.3783 14.5 23.5C14.4997 24.0035 14.5483 24.5059 14.645 25H16.69ZM29 33.5C29.0007 32.7046 29.3169 31.9419 29.8794 31.3794C30.4419 30.8169 31.2046 30.5007 32 30.5H36V28.5C35.9998 27.837 35.7363 27.2013 35.2675 26.7325C34.7987 26.2637 34.163 26.0003 33.5 26H13C12.2607 26.0017 11.5474 25.727 11 25.23V38.5C11.0002 39.163 11.2637 39.7987 11.7325 40.2675C12.2013 40.7363 12.837 40.9998 13.5 41H33.5C34.163 40.9998 34.7987 40.7363 35.2675 40.2675C35.7363 39.7987 35.9998 39.163 36 38.5V36.5H32C31.2046 36.4994 30.4419 36.1831 29.8794 35.6206C29.3169 35.0582 29.0007 34.2955 29 33.5ZM36.5 31.5H32C31.4696 31.5 30.9609 31.7107 30.5858 32.0858C30.2107 32.4609 30 32.9696 30 33.5C30 34.0305 30.2107 34.5392 30.5858 34.9142C30.9609 35.2893 31.4696 35.5 32 35.5H36.5C36.6326 35.5 36.7598 35.4473 36.8536 35.3536C36.9473 35.2598 37 35.1326 37 35V32C37 31.8674 36.9473 31.7402 36.8536 31.6465C36.7598 31.5527 36.6326 31.5 36.5 31.5ZM40.9517 15.7859C40.9112 15.7004 40.8473 15.6281 40.7673 15.5774C40.6874 15.5268 40.5947 15.5 40.5 15.5H38.5V11.5C38.5 11.3674 38.4473 11.2402 38.3536 11.1464C38.2598 11.0527 38.1326 11 38 11H34C33.8674 11 33.7402 11.0527 33.6465 11.1464C33.5527 11.2402 33.5 11.3674 33.5 11.5V15.5H31.5C31.4054 15.5001 31.3127 15.527 31.2328 15.5776C31.1528 15.6282 31.0889 15.7005 31.0483 15.786C31.0078 15.8715 30.9923 15.9667 31.0038 16.0606C31.0152 16.1546 31.053 16.2433 31.1128 16.3167L35.6128 21.8167C35.6598 21.874 35.7189 21.9202 35.7858 21.9519C35.8528 21.9836 35.9259 22 36 22C36.0741 22 36.1473 21.9836 36.2142 21.9519C36.2812 21.9202 36.3403 21.874 36.3872 21.8167L40.8872 16.3167C40.9471 16.2434 40.9849 16.1546 40.9964 16.0606C41.0078 15.9667 40.9923 15.8714 40.9517 15.7859ZM22.5 14.5C22.6326 14.5 22.7598 14.4473 22.8536 14.3536C22.9473 14.2598 23 14.1326 23 14V11.5C23 11.3674 22.9473 11.2402 22.8536 11.1464C22.7598 11.0527 22.6326 11 22.5 11C22.3674 11 22.2402 11.0527 22.1465 11.1464C22.0527 11.2402 22 11.3674 22 11.5V14C22 14.1326 22.0527 14.2598 22.1465 14.3536C22.2402 14.4473 22.3674 14.5 22.5 14.5ZM17.5 15.5C17.6326 15.5 17.7598 15.4473 17.8536 15.3536C17.9473 15.2598 18 15.1326 18 15V12.5C18 12.3674 17.9473 12.2402 17.8536 12.1464C17.7598 12.0527 17.6326 12 17.5 12C17.3674 12 17.2402 12.0527 17.1465 12.1464C17.0527 12.2402 17 12.3674 17 12.5V15C17 15.1326 17.0527 15.2598 17.1465 15.3536C17.2402 15.4473 17.3674 15.5 17.5 15.5ZM27.5 15.5C27.6326 15.5 27.7598 15.4473 27.8536 15.3536C27.9473 15.2598 28 15.1326 28 15V12.5C28 12.3674 27.9473 12.2402 27.8536 12.1464C27.7598 12.0527 27.6326 12 27.5 12C27.3674 12 27.2402 12.0527 27.1465 12.1464C27.0527 12.2402 27 12.3674 27 12.5V15C27 15.1326 27.0527 15.2598 27.1465 15.3536C27.2402 15.4473 27.3674 15.5 27.5 15.5Z" fill="#E2BC72"/>
</svg>
