<svg width="21" height="19" viewBox="0 0 21 19" fill="none" xmlns="http://www.w3.org/2000/svg">
<path d="M17.8623 0H15.9886V1.87366C15.9886 2.2484 15.6763 2.49822 15.3641 2.49822C15.0518 2.49822 14.7395 2.2484 14.7395 1.87366V0H4.74662V1.87366C4.74662 2.2484 4.43434 2.49822 4.12206 2.49822C3.80979 2.49822 3.49751 2.2484 3.49751 1.87366V0H1.62384C0.68701 0 0 0.811921 0 1.87366V4.12206H19.9858V1.87366C19.9858 0.811921 18.8616 0 17.8623 0ZM0 5.43363V16.863C0 17.9872 0.68701 18.7366 1.6863 18.7366H17.9247C18.924 18.7366 20.0482 17.9247 20.0482 16.863V5.43363H0ZM5.55854 15.9262H4.05961C3.80979 15.9262 3.55996 15.7388 3.55996 15.4265V13.8651C3.55996 13.6153 3.74733 13.3655 4.05961 13.3655H5.62099C5.87082 13.3655 6.12064 13.5528 6.12064 13.8651V15.4265C6.05818 15.7388 5.87082 15.9262 5.55854 15.9262ZM5.55854 10.3052H4.05961C3.80979 10.3052 3.55996 10.1178 3.55996 9.80551V8.24413C3.55996 7.9943 3.74733 7.74448 4.05961 7.74448H5.62099C5.87082 7.74448 6.12064 7.93185 6.12064 8.24413V9.80551C6.05818 10.1178 5.87082 10.3052 5.55854 10.3052ZM10.555 15.9262H8.99359C8.74377 15.9262 8.49395 15.7388 8.49395 15.4265V13.8651C8.49395 13.6153 8.68131 13.3655 8.99359 13.3655H10.555C10.8048 13.3655 11.0546 13.5528 11.0546 13.8651V15.4265C11.0546 15.7388 10.8673 15.9262 10.555 15.9262ZM10.555 10.3052H8.99359C8.74377 10.3052 8.49395 10.1178 8.49395 9.80551V8.24413C8.49395 7.9943 8.68131 7.74448 8.99359 7.74448H10.555C10.8048 7.74448 11.0546 7.93185 11.0546 8.24413V9.80551C11.0546 10.1178 10.8673 10.3052 10.555 10.3052ZM15.5514 15.9262H13.99C13.7402 15.9262 13.4904 15.7388 13.4904 15.4265V13.8651C13.4904 13.6153 13.6778 13.3655 13.99 13.3655H15.5514C15.8012 13.3655 16.0511 13.5528 16.0511 13.8651V15.4265C16.0511 15.7388 15.8637 15.9262 15.5514 15.9262ZM15.5514 10.3052H13.99C13.7402 10.3052 13.4904 10.1178 13.4904 9.80551V8.24413C13.4904 7.9943 13.6778 7.74448 13.99 7.74448H15.5514C15.8012 7.74448 16.0511 7.93185 16.0511 8.24413V9.80551C16.0511 10.1178 15.8637 10.3052 15.5514 10.3052Z" fill="white"/>
</svg>
