<svg width="48" height="48" viewBox="0 0 48 48" fill="none" xmlns="http://www.w3.org/2000/svg">
<path d="M34.9778 10.6767L35.0242 11.033L34.4901 11.1436L34.4191 11.9027H35.0588L35.9097 11.8208L36.349 11.2986L35.882 11.1169L35.6264 10.8228L35.2424 10.2009L35.0588 9.32129L34.3371 9.46838L34.1348 9.77835V10.1278L34.4822 10.3657L34.9778 10.6767Z" fill="black"/>
<path d="M34.3635 10.968L34.402 10.4922L33.9785 10.3096L33.3862 10.4468L32.9469 11.1516V11.6087H33.4593L34.3635 10.968ZM22.172 12.9887L22.0417 13.3244H21.4109V13.6501H21.561L21.5827 13.8101L21.9697 13.7775L22.2115 13.6274L22.2747 13.3244L22.5876 13.2977L22.711 13.043L22.4237 12.9838L22.172 12.9887ZM20.5462 13.58L20.5215 13.8989L20.9785 13.8604L21.0259 13.5406L20.7515 13.3244L20.5462 13.58Z" fill="black"/>
<path d="M47.9949 23.7522C47.9887 23.056 47.9525 22.3603 47.8863 21.6673C47.6682 19.4249 47.1334 17.2246 46.298 15.1322C46.2368 14.9792 46.1805 14.8242 46.1154 14.6732C44.9571 11.945 43.3041 9.45456 41.2398 7.32773C40.8861 6.95874 40.5206 6.6012 40.144 6.25567C35.7331 2.2268 29.9738 -0.00486886 23.9999 7.97608e-06C17.7364 7.97608e-06 12.0296 2.41362 7.75122 6.35734C6.75436 7.27761 5.83638 8.2798 5.0069 9.35339C1.75735 13.5439 -0.00427804 18.6971 7.80174e-06 23.9999C7.80174e-06 37.2348 10.767 48.0009 24.0009 48.0009C33.3099 48.0009 41.3918 42.6702 45.3701 34.9032C46.4524 32.7923 47.2127 30.5313 47.6257 28.1954C47.8676 26.8321 47.9999 25.4303 47.9999 23.9999C48.0009 23.917 47.9959 23.8351 47.9949 23.7522ZM43.4777 14.1599L43.6169 14.0039C43.7995 14.3583 43.9703 14.7186 44.1331 15.0839L43.9061 15.075L43.4777 15.1342V14.1599ZM40.0098 9.97234L40.0137 8.90028C40.3908 9.30008 40.7541 9.71173 41.1016 10.1382L40.6692 10.7818L39.1578 10.768L39.0631 10.4531L40.0098 9.97234ZM11.0582 7.30798V7.26751H11.539L11.5804 7.10265H12.3672V7.44619L12.1411 7.74826H11.0572L11.0582 7.30798ZM11.8262 8.37906C11.8262 8.37906 12.307 8.29712 12.3484 8.29712C12.3899 8.29712 12.3484 8.77688 12.3484 8.77688L11.2645 8.845L11.0582 8.59821L11.8262 8.37906ZM45.0068 17.9062H43.2506L42.1805 17.1095L41.0542 17.2191V17.9062H40.6978L40.3128 17.6317L38.3622 17.1372V15.8736L35.8903 16.0661L35.1243 16.4777H34.143L33.6623 16.4294L32.4708 17.0908V18.3356L30.0355 20.0927L30.2378 20.843H30.7314L30.6021 21.5577L30.2546 21.685L30.2359 23.5528L32.3405 25.9496H33.2566L33.3119 25.8035H34.9584L35.4333 25.3642H36.3671L36.8795 25.8775L38.2714 26.0217L38.0868 27.8726L39.6317 30.6001L38.8183 32.1549L38.8735 32.8874L39.5142 33.5261V35.2872L40.3553 36.4185V37.8814H41.0818C37.0384 42.8459 30.8844 46.0255 23.999 46.0255C11.8549 46.0265 1.97434 36.145 1.97434 23.9999C1.97434 20.9427 2.60217 18.0286 3.73247 15.38V14.693L4.52023 13.7364C4.79368 13.2201 5.08686 12.7167 5.39979 12.226L5.43533 12.6258L4.52023 13.7364C4.23491 14.2731 3.97308 14.8214 3.73346 15.38V16.6337L4.64856 17.074V18.8163L5.52615 20.3139L6.23987 20.4234L6.33168 19.9101L5.48963 18.611L5.32477 17.3484H5.81835L6.02664 18.6475L7.24382 20.4234L6.9299 20.997L7.70384 22.1806L9.62584 22.6564V22.3455L10.3948 22.455L10.3218 23.0039L10.9259 23.1145L11.8588 23.3691L13.1767 24.8706L14.8598 24.998L15.0246 26.3711L13.8726 27.1766L13.8183 28.4027L13.6535 29.1529L15.3198 31.2388L15.4471 31.9535C15.4471 31.9535 16.0513 32.1174 16.1253 32.1174C16.1984 32.1174 17.4797 33.0878 17.4797 33.0878V36.8577L17.9368 36.9861L17.6258 38.7255L18.3948 39.7511L18.2527 41.4747L19.2685 43.2605L20.5725 44.3997L21.8835 44.4234L22.0118 44.0019L21.0483 43.1904L21.1036 42.7876L21.2764 42.2941L21.3129 41.7906L20.6614 41.7709L20.3326 41.3582L20.8736 40.838L20.9466 40.4451L20.3425 40.2724L20.378 39.9071L21.2388 39.7768L22.5478 39.148L22.9871 38.3424L24.3603 36.5853L24.0483 35.2112L24.4698 34.4797L25.7324 34.5182L26.5824 33.8449L26.8568 31.1934L27.7995 29.996L27.9644 29.227L27.1046 28.9516L26.5369 28.0207L24.5972 28.0009L23.0592 27.4145L22.9861 26.3178L22.4728 25.4205L21.0819 25.3997L20.2783 24.1381L19.5646 23.7897L19.5281 24.1747L18.229 24.2517L17.7532 23.5893L16.3978 23.3139L15.2813 24.6041L13.5242 24.306L13.3968 22.3257L12.1145 22.1066L12.6288 21.1352L12.4817 20.5774L10.7966 21.7038L9.73641 21.5745L9.35832 20.7462L9.58932 19.8923L10.1737 18.8154L11.5192 18.1342L14.1174 18.1332L14.1105 18.9259L15.0444 19.3603L14.9703 18.0059L15.6436 17.3287L17.0019 16.4363L17.0947 15.8085L18.4491 14.3988L19.8894 13.6012L19.762 13.4965L20.7374 12.5785L21.0947 12.6732L21.2586 12.8785L21.6288 12.4679L21.7196 12.4274L21.3139 12.3702L20.9022 12.2329V11.8381L21.1204 11.6594H21.6011L21.8213 11.7561L22.0118 12.1411L22.2448 12.1056V12.072L22.3119 12.0947L22.9871 11.9911L23.0829 11.6614L23.4679 11.7581V12.1155L23.1105 12.3613H23.1115L23.1638 12.7532L24.3869 13.1303L24.3899 13.1451L24.6712 13.1214L24.69 12.5913L23.7206 12.15L23.6653 11.8953L24.4698 11.6209L24.5054 10.8509L23.6643 10.3386L23.609 9.04045L22.456 9.60709H22.0355L22.146 8.61894L20.5765 8.24875L19.9269 8.73937V10.2359L18.7591 10.6061L18.2912 11.5814L17.7838 11.6633V10.4156L16.686 10.2636L16.1372 9.9062L15.9161 9.09771L17.8795 7.94865L18.84 7.65645L18.9368 8.30206L19.4718 8.27442L19.5133 7.94964L20.073 7.86968L20.0829 7.75616L19.842 7.65645L19.7867 7.31292L20.4748 7.25468L20.8904 6.8223L20.9131 6.79071L20.918 6.79268L21.0444 6.66238L22.4906 6.47975L23.1302 7.02269L21.4531 7.91608L23.5873 8.41953L23.8637 7.70581H24.7966L25.1263 7.0839L24.4669 6.91904V6.13227L22.3988 5.21618L20.9713 5.38104L20.1658 5.80256L20.2211 6.82723L19.379 6.6989L19.2497 6.13227L20.0562 5.39979L18.5923 5.32674L18.1717 5.45409L17.9891 5.94767L18.538 6.04046L18.4284 6.58933L17.4955 6.64461L17.3494 7.00986L15.996 7.04737C15.996 7.04737 15.9585 6.27936 15.9042 6.27936L16.9654 6.2606L17.7719 5.47285L17.3316 5.25271L16.7463 5.82131L15.7749 5.76603L15.1895 4.96051H13.9447L12.6456 5.93089H13.8361L13.9447 6.27936L13.6357 6.56662L14.9536 6.60315L15.1549 7.07896L13.6712 7.02368L13.5992 6.65744L12.6663 6.45606L12.1717 6.18163L11.0612 6.19051C14.817 3.44698 19.3488 1.9703 23.9999 1.97434C29.5695 1.97434 34.6583 4.05626 38.5409 7.47679L38.2793 7.9447L37.2635 8.34253L36.835 8.80748L36.9338 9.34944L37.4579 9.42249L37.7738 10.2122L38.6781 9.84795L38.8271 10.9042H38.5547L37.8123 10.7946L36.989 10.9328L36.1924 12.0582L35.0532 12.2369L34.8884 13.2122L35.3691 13.3257L35.2299 13.9526L34.0986 13.7255L33.0611 13.9526L32.841 14.5301L33.0206 15.7423L33.6297 16.0276L34.6514 16.0217L35.3415 15.9595L35.5517 15.4106L36.6297 14.0098L37.3395 14.155L38.0384 13.5232L38.1687 14.0167L39.8883 15.1767L39.6781 15.459L38.9032 15.4175L39.2013 15.84L39.6781 15.9447L40.2368 15.7117L40.225 15.0385L40.4727 14.9141L40.2733 14.7028L39.1263 14.0631L38.8242 13.2132H39.7778L40.0828 13.5153L40.9041 14.2231L40.9387 15.0789L41.7896 15.9852L42.1065 14.7433L42.6958 14.4215L42.8064 15.4373L43.3819 16.0691L44.53 16.0493C44.7521 16.6209 44.9515 17.2023 45.1262 17.7956L45.0068 17.9062ZM13.0908 10.9042L13.6673 10.6298L14.1885 10.7542L14.0089 11.4541L13.4462 11.6327L13.0908 10.9042ZM16.15 12.5518V13.0049H14.8331L14.3396 12.8677L14.4629 12.5518L15.0957 12.2902H15.9605V12.5518H16.15ZM16.7561 13.1836V13.6229L16.4264 13.8351L16.0158 13.9111V13.1836H16.7561ZM16.385 13.0049V12.4827L16.8381 12.8953L16.385 13.0049ZM16.5913 14.0612V14.4886L16.2764 14.8045H15.5765L15.686 14.3247L16.0167 14.2961L16.0849 14.1313L16.5913 14.0612ZM14.8479 13.1836H15.5755L14.6426 14.4876L14.2576 14.2813L14.3405 13.7324L14.8479 13.1836ZM17.8272 13.9111V14.3376H17.1273L16.9358 14.0612V13.6643H16.9911L17.8272 13.9111ZM17.1806 13.3247L17.38 13.1155L17.7166 13.3247L17.4471 13.5469L17.1806 13.3247ZM45.3641 19.0177L45.4332 18.9368C45.4619 19.0612 45.4925 19.1855 45.5201 19.3119L45.3641 19.0177Z" fill="black"/>
<path d="M3.73438 14.6929V15.38C3.97426 14.8192 4.23882 14.2724 4.52213 13.7363L3.73438 14.6929Z" fill="black"/>
</svg>
