<svg width="30" height="22" viewBox="0 0 30 22" fill="none" xmlns="http://www.w3.org/2000/svg">
<path d="M19.4393 11.792L16.9267 14.313C15.9078 15.3355 14.1151 15.3575 13.0742 14.313L10.5615 11.792L1.53711 20.8457C1.87303 21.001 2.2434 21.0937 2.63715 21.0937H27.3637C27.7575 21.0937 28.1277 21.0011 28.4635 20.8457L19.4393 11.792Z" fill="black" fill-opacity="0.5"/>
<path d="M27.3636 0H2.63703C2.24328 0 1.87291 0.0926954 1.53711 0.248027L11.1803 9.9232C11.1809 9.92385 11.1817 9.92397 11.1823 9.92461C11.183 9.92525 11.1831 9.92613 11.1831 9.92613L14.3186 13.072C14.6517 13.4051 15.3491 13.4051 15.6821 13.072L18.817 9.92666C18.817 9.92666 18.8178 9.92525 18.8184 9.92461C18.8184 9.92461 18.8198 9.92385 18.8204 9.9232L28.4634 0.247969C28.1276 0.0925783 27.7573 0 27.3636 0Z" fill="black" fill-opacity="0.5"/>
<path d="M0.28043 1.47754C0.106641 1.82898 0 2.2191 0 2.63699V18.4573C0 18.8752 0.106523 19.2653 0.280371 19.6168L9.32039 10.5474L0.28043 1.47754Z" fill="black" fill-opacity="0.5"/>
<path d="M29.7196 1.47754L20.6797 10.5476L29.7196 19.617C29.8934 19.2655 30 18.8754 30 18.4574V2.63711C30 2.2191 29.8934 1.82898 29.7196 1.47754Z" fill="black" fill-opacity="0.5"/>
</svg>
