<svg width="109" height="43" viewBox="0 0 109 43" fill="none" xmlns="http://www.w3.org/2000/svg">
<g filter="url(#filter0_di_1215_4079)">
<path d="M7 16.56C7 11.2802 11.2802 7 16.56 7H101.692V35.6946H7V16.56Z" fill="black"/>
</g>
<path d="M33.948 18.5474V20.1785H36.1384V21.2131H33.948V22.9374H36.418V24H32.6431V17.4848H36.418V18.5474H33.948ZM40.456 24L39.3934 22.3968L38.452 24H37.0539L38.741 21.4089L37.0353 18.8363H38.5079L39.5612 20.4302L40.5119 18.8363H41.91L40.2136 21.4089L41.9286 24H40.456ZM42.3018 21.4182C42.3018 20.8838 42.4106 20.4178 42.628 20.0201C42.8455 19.6162 43.1469 19.3055 43.5322 19.088C43.9174 18.8643 44.3586 18.7525 44.8557 18.7525C45.4957 18.7525 46.0239 18.914 46.4402 19.2371C46.8627 19.554 47.1455 20.0014 47.2884 20.5793H45.881C45.8064 20.3556 45.679 20.1816 45.4988 20.0574C45.3248 19.9269 45.1074 19.8616 44.8464 19.8616C44.4735 19.8616 44.1784 19.9983 43.9609 20.2717C43.7434 20.5389 43.6347 20.9211 43.6347 21.4182C43.6347 21.9091 43.7434 22.2912 43.9609 22.5646C44.1784 22.8318 44.4735 22.9654 44.8464 22.9654C45.3745 22.9654 45.7194 22.7293 45.881 22.257H47.2884C47.1455 22.8163 46.8627 23.2606 46.4402 23.5899C46.0177 23.9192 45.4895 24.0839 44.8557 24.0839C44.3586 24.0839 43.9174 23.9751 43.5322 23.7577C43.1469 23.534 42.8455 23.2233 42.628 22.8256C42.4106 22.4217 42.3018 21.9526 42.3018 21.4182ZM49.5492 17.1027V24H48.2443V17.1027H49.5492ZM55.7132 18.8363V24H54.399V23.3476C54.2312 23.5712 54.0106 23.7483 53.7372 23.8788C53.47 24.0031 53.178 24.0652 52.8611 24.0652C52.4572 24.0652 52.0999 23.9814 51.7892 23.8136C51.4785 23.6396 51.2331 23.3879 51.0529 23.0586C50.8789 22.7231 50.7919 22.3254 50.7919 21.8656V18.8363H52.0968V21.6792C52.0968 22.0893 52.1993 22.4062 52.4043 22.6299C52.6094 22.8473 52.889 22.9561 53.2432 22.9561C53.6036 22.9561 53.8863 22.8473 54.0914 22.6299C54.2964 22.4062 54.399 22.0893 54.399 21.6792V18.8363H55.7132ZM58.9767 24.0839C58.5541 24.0839 58.1751 24.0093 57.8395 23.8602C57.504 23.7048 57.2368 23.4967 57.038 23.2357C56.8453 22.9747 56.7397 22.6858 56.7211 22.3689H58.0353C58.0601 22.5677 58.1564 22.7324 58.3242 22.8629C58.4982 22.9934 58.7126 23.0586 58.9673 23.0586C59.2159 23.0586 59.4085 23.0089 59.5452 22.9095C59.6881 22.8101 59.7596 22.6827 59.7596 22.5273C59.7596 22.3596 59.6726 22.2353 59.4986 22.1545C59.3309 22.0675 59.0606 21.9743 58.6877 21.8749C58.3025 21.7817 57.9856 21.6854 57.737 21.5859C57.4947 21.4865 57.2834 21.3343 57.1032 21.1292C56.9292 20.9242 56.8422 20.6477 56.8422 20.2997C56.8422 20.0139 56.923 19.7529 57.0846 19.5168C57.2523 19.2806 57.4885 19.0942 57.7929 18.9575C58.1036 18.8208 58.4671 18.7525 58.8835 18.7525C59.4986 18.7525 59.9895 18.9078 60.3561 19.2185C60.7227 19.523 60.9247 19.9362 60.962 20.4581H59.713C59.6944 20.2531 59.6074 20.0915 59.452 19.9735C59.3029 19.8492 59.1009 19.7871 58.8462 19.7871C58.6101 19.7871 58.4267 19.8305 58.2963 19.9175C58.172 20.0045 58.1098 20.1257 58.1098 20.281C58.1098 20.455 58.1968 20.5886 58.3708 20.6818C58.5448 20.7688 58.8151 20.8589 59.1817 20.9521C59.5545 21.0453 59.8621 21.1417 60.1045 21.2411C60.3468 21.3405 60.555 21.4958 60.729 21.7071C60.9092 21.9122 61.0024 22.1856 61.0086 22.5273C61.0086 22.8256 60.9247 23.0928 60.7569 23.3289C60.5954 23.565 60.3592 23.7514 60.0485 23.8882C59.7441 24.0186 59.3868 24.0839 58.9767 24.0839ZM62.7415 18.2212C62.5116 18.2212 62.319 18.1497 62.1636 18.0068C62.0145 17.8577 61.9399 17.6744 61.9399 17.4569C61.9399 17.2394 62.0145 17.0592 62.1636 16.9163C62.319 16.7672 62.5116 16.6926 62.7415 16.6926C62.9714 16.6926 63.1609 16.7672 63.3101 16.9163C63.4654 17.0592 63.5431 17.2394 63.5431 17.4569C63.5431 17.6744 63.4654 17.8577 63.3101 18.0068C63.1609 18.1497 62.9714 18.2212 62.7415 18.2212ZM63.3846 18.8363V24H62.0797V18.8363H63.3846ZM66.8269 22.7976L68.1318 18.8363H69.5206L67.6099 24H66.0254L64.1239 18.8363H65.522L66.8269 22.7976ZM75.0537 21.3063C75.0537 21.4927 75.0412 21.6605 75.0164 21.8096H71.2415C71.2726 22.1825 71.4031 22.4745 71.633 22.6858C71.8629 22.8971 72.1456 23.0027 72.4812 23.0027C72.9658 23.0027 73.3107 22.7945 73.5158 22.3782H74.9232C74.7741 22.8753 74.4882 23.2854 74.0657 23.6085C73.6431 23.9254 73.1243 24.0839 72.5091 24.0839C72.012 24.0839 71.5646 23.9751 71.167 23.7577C70.7755 23.534 70.4679 23.2202 70.2442 22.8163C70.0267 22.4124 69.918 21.9463 69.918 21.4182C69.918 20.8838 70.0267 20.4146 70.2442 20.0107C70.4617 19.6069 70.7662 19.2962 71.1576 19.0787C71.5491 18.8612 71.9996 18.7525 72.5091 18.7525C73 18.7525 73.4381 18.8581 73.8233 19.0694C74.2148 19.2806 74.5162 19.582 74.7275 19.9735C74.9449 20.3587 75.0537 20.803 75.0537 21.3063ZM73.7022 20.9335C73.696 20.598 73.5748 20.3308 73.3387 20.1319C73.1025 19.9269 72.8136 19.8243 72.4718 19.8243C72.1487 19.8243 71.8753 19.9238 71.6516 20.1226C71.4341 20.3152 71.3005 20.5855 71.2508 20.9335H73.7022Z" fill="white"/>
<defs>
<filter id="filter0_di_1215_4079" x="0.304593" y="0.304593" width="108.083" height="42.0851" filterUnits="userSpaceOnUse" color-interpolation-filters="sRGB">
<feFlood flood-opacity="0" result="BackgroundImageFix"/>
<feColorMatrix in="SourceAlpha" type="matrix" values="0 0 0 0 0 0 0 0 0 0 0 0 0 0 0 0 0 0 127 0" result="hardAlpha"/>
<feOffset/>
<feGaussianBlur stdDeviation="3.3477"/>
<feComposite in2="hardAlpha" operator="out"/>
<feColorMatrix type="matrix" values="0 0 0 0 0 0 0 0 0 0 0 0 0 0 0 0 0 0 0.44 0"/>
<feBlend mode="normal" in2="BackgroundImageFix" result="effect1_dropShadow_1215_4079"/>
<feBlend mode="normal" in="SourceGraphic" in2="effect1_dropShadow_1215_4079" result="shape"/>
<feColorMatrix in="SourceAlpha" type="matrix" values="0 0 0 0 0 0 0 0 0 0 0 0 0 0 0 0 0 0 127 0" result="hardAlpha"/>
<feOffset/>
<feGaussianBlur stdDeviation="3.3477"/>
<feComposite in2="hardAlpha" operator="arithmetic" k2="-1" k3="1"/>
<feColorMatrix type="matrix" values="0 0 0 0 0 0 0 0 0 0 0 0 0 0 0 0 0 0 0.25 0"/>
<feBlend mode="normal" in2="shape" result="effect2_innerShadow_1215_4079"/>
</filter>
</defs>
</svg>
