<svg width="297" height="65" viewBox="0 0 297 65" fill="none" xmlns="http://www.w3.org/2000/svg">
<path d="M32.0886 64.513C24.6648 64.513 17.4706 61.9254 11.7319 57.1911C5.99317 52.4569 2.06497 45.8688 0.616637 38.5495C-0.831701 31.2302 0.289427 23.6325 3.78899 17.051C7.28855 10.4694 12.95 5.31128 19.8087 2.45541C26.6675 -0.400459 34.2991 -0.777351 41.4033 1.38894C48.5075 3.55524 54.6446 8.13069 58.7691 14.3357C62.8936 20.5407 64.7502 27.9913 64.0225 35.4181C63.2949 42.8449 60.028 49.7883 54.7786 55.0652C51.806 58.0701 48.2699 60.4523 44.3752 62.0741C40.4804 63.6958 36.3043 64.5248 32.0886 64.513ZM32.0886 1.20844C15.0631 1.20844 1.20228 15.1372 1.20228 32.2565C1.20228 49.3758 15.0631 63.3045 32.0886 63.3045C49.1141 63.3045 62.975 49.3758 62.975 32.2565C62.975 15.1372 49.1141 1.20844 32.0886 1.20844Z" fill="white"/>
<path d="M32.0855 62.1614C25.206 62.1608 18.5394 59.7749 13.2218 55.4101C7.90414 51.0454 4.26438 44.9719 2.92264 38.2245C1.58091 31.4771 2.62022 24.4731 5.86349 18.4061C9.10677 12.339 14.3533 7.58415 20.7093 4.95167C27.0653 2.31918 34.1374 1.97194 40.7206 3.96909C47.3039 5.96624 52.9911 10.1842 56.8131 15.9044C60.6352 21.6245 62.3556 28.4929 61.6814 35.3394C61.0071 42.1858 57.9798 48.5866 53.1154 53.4513C50.3601 56.2216 47.0828 58.4179 43.473 59.913C39.8632 61.4081 35.9927 62.1723 32.0855 62.1614V62.1614ZM32.0855 3.80931C16.3027 3.80931 3.46294 16.6491 3.46294 32.4307C3.46294 48.2124 16.3027 61.0521 32.0855 61.0521C47.8683 61.0521 60.7069 48.2124 60.7069 32.4307C60.7069 16.6491 47.8672 3.80353 32.0855 3.80353V3.80931Z" fill="white"/>
<path d="M25.2913 20.5854C25.081 20.6866 24.8456 20.7229 24.6149 20.6896C24.3841 20.6563 24.1684 20.5551 23.9948 20.3985C23.8213 20.242 23.6979 20.0373 23.6401 19.8102C23.5823 19.5832 23.5927 19.344 23.6701 19.1229C23.7475 18.9018 23.8883 18.7087 24.0748 18.5681C24.2613 18.4275 24.4851 18.3456 24.7179 18.3328C24.9506 18.3201 25.182 18.3769 25.3826 18.4963C25.5832 18.6157 25.7441 18.7922 25.845 19.0035C25.9797 19.2871 25.9971 19.6129 25.8933 19.9095C25.7895 20.206 25.573 20.449 25.2913 20.5854ZM24.9302 13.0169C25.2418 12.8671 25.5904 12.8136 25.9322 12.8631C26.274 12.9125 26.5935 13.0627 26.8504 13.2947C27.1073 13.5267 27.29 13.83 27.3755 14.1664C27.461 14.5027 27.4454 14.857 27.3306 15.1845C27.2159 15.5119 27.0072 15.7978 26.7309 16.006C26.4546 16.2142 26.1231 16.3354 25.7783 16.3543C25.4335 16.3731 25.0909 16.2888 24.7938 16.112C24.4966 15.9351 24.2583 15.6737 24.1089 15.3607C23.9093 14.9403 23.8836 14.4574 24.0376 14.0181C24.1916 13.5787 24.5126 13.2186 24.9302 13.0169V13.0169ZM21.1606 18.7274C20.8488 18.8776 20.4998 18.9315 20.1576 18.8822C19.8154 18.8329 19.4954 18.6827 19.2381 18.4506C18.9809 18.2184 18.7978 17.9148 18.7122 17.5781C18.6266 17.2414 18.6423 16.8867 18.7572 16.5589C18.8721 16.2311 19.0811 15.9449 19.3578 15.7366C19.6345 15.5283 19.9665 15.4071 20.3116 15.3885C20.6568 15.3698 20.9998 15.4545 21.2971 15.6319C21.5944 15.8092 21.8327 16.0712 21.9819 16.3848C22.1815 16.805 22.2071 17.2877 22.0531 17.7269C21.8991 18.1661 21.5781 18.5259 21.1606 18.7274V18.7274ZM21.0267 11.6344C21.2138 11.5444 21.4231 11.5121 21.6284 11.5417C21.8336 11.5713 22.0256 11.6614 22.1799 11.8006C22.3342 11.9399 22.444 12.122 22.4954 12.3239C22.5468 12.5259 22.5375 12.7387 22.4686 12.9353C22.3998 13.1319 22.2745 13.3037 22.1086 13.4287C21.9427 13.5538 21.7436 13.6266 21.5366 13.6379C21.3296 13.6492 21.1238 13.5986 20.9454 13.4924C20.767 13.3862 20.6239 13.2292 20.5342 13.0412C20.4142 12.789 20.3986 12.4991 20.491 12.2354C20.5833 11.9716 20.776 11.7555 21.0267 11.6344V11.6344ZM41.5374 46.1462L42.0841 47.2943L40.9029 47.8638L40.355 46.7145L39.1738 47.2839L28.6076 25.1084C28.8328 24.9763 29.0003 24.7638 29.0769 24.5133C29.1534 24.2627 29.1334 23.9923 29.0208 23.7559C28.9081 23.5195 28.7112 23.3344 28.469 23.2373C28.2268 23.1402 27.9572 23.1383 27.7137 23.2319L26.9466 21.6199C27.3733 21.1751 27.6549 20.6101 27.7536 20.0001C27.8523 19.3902 27.7636 18.7645 27.4991 18.2067C27.4344 18.074 27.3604 17.9461 27.2776 17.824C28.131 17.4054 28.7841 16.6631 29.0931 15.7603C29.4021 14.8576 29.3418 13.8685 28.9254 13.0105C28.5091 12.1525 27.7707 11.4959 26.8729 11.1852C25.975 10.8745 24.9912 10.9352 24.1378 11.3538C24.1228 11.3607 24.1112 11.3689 24.0974 11.3758C24.0905 11.3619 24.0859 11.3468 24.0789 11.3329C23.7382 10.6569 23.1478 10.142 22.4341 9.89821C21.7205 9.65447 20.9402 9.70134 20.2605 10.0288C19.5808 10.3562 19.0556 10.9383 18.7973 11.6502C18.5391 12.3621 18.5684 13.1474 18.8789 13.838C18.8858 13.8519 18.8939 13.8646 18.902 13.8785C18.887 13.8785 18.8731 13.889 18.8593 13.8959C17.9999 14.3015 17.336 15.0337 17.0136 15.9314C16.6911 16.8291 16.7366 17.8188 17.14 18.6828C17.5433 19.5468 18.2716 20.2143 19.1645 20.5385C20.0573 20.8627 21.0417 20.817 21.9011 20.4114C22.1004 21.0768 22.5234 21.6519 23.0979 22.0384C23.6723 22.4249 24.3624 22.5988 25.0502 22.5303L25.8184 24.1423C25.5933 24.2744 25.4257 24.4868 25.3492 24.7374C25.2726 24.988 25.2927 25.2583 25.4053 25.4948C25.5179 25.7312 25.7149 25.9163 25.9571 26.0134C26.1993 26.1105 26.4689 26.1124 26.7124 26.0188L37.2786 48.1943L39.3353 52.5109L40.4104 54.7689L42.301 53.8585L41.2259 51.6005L42.4071 51.0322L41.8604 49.8829L43.0427 49.3135L43.5895 50.4628L45.3613 49.6092L43.3057 45.2915L41.5374 46.1462Z" fill="white"/>
<path d="M29.3245 37.2969L23.7446 48.5134L22.7512 48.0499L22.2758 48.954L21.2825 48.4893L21.7591 47.5853L20.2708 46.8889L18.4805 50.287L19.9688 50.9846L20.4453 50.0794L21.4387 50.544L20.9621 51.4481L21.9543 51.9127L21.0184 53.6909L22.6065 54.4332L23.5425 52.6561L25.3316 49.2568L30.9127 38.0391L29.3245 37.2969Z" fill="white"/>
<path d="M45.3355 18.0454C45.182 18.3581 44.9402 18.6177 44.6407 18.7914C44.3412 18.9652 43.9976 19.0452 43.6531 19.0214C43.3086 18.9977 42.9789 18.8712 42.7055 18.658C42.4322 18.4447 42.2275 18.1543 42.1173 17.8235C42.0072 17.4926 41.9966 17.1362 42.0868 16.7992C42.177 16.4622 42.364 16.1599 42.6241 15.9303C42.8842 15.7008 43.2059 15.5545 43.5483 15.5097C43.8907 15.465 44.2385 15.524 44.5478 15.6791C44.962 15.8879 45.2775 16.2542 45.4251 16.6977C45.5727 17.1412 45.5405 17.6258 45.3355 18.0454M40.0959 15.4156C39.9423 15.7285 39.7003 15.9883 39.4006 16.1622C39.101 16.336 38.757 16.4161 38.4123 16.3923C38.0676 16.3686 37.7376 16.242 37.464 16.0285C37.1905 15.8151 36.9857 15.5245 36.8755 15.1933C36.7654 14.8622 36.7548 14.5055 36.8451 14.1683C36.9354 13.8311 37.1227 13.5286 37.383 13.2989C37.6434 13.0693 37.9653 12.9229 38.308 12.8783C38.6507 12.8336 38.9988 12.8927 39.3082 13.0481C39.7225 13.2572 40.038 13.6237 40.1856 14.0674C40.3332 14.5111 40.301 14.9958 40.0959 15.4156ZM40.4218 20.1134C40.3179 20.3244 40.1546 20.4995 39.9524 20.6166C39.7501 20.7338 39.5181 20.7876 39.2856 20.7715C39.0531 20.7553 38.8305 20.6698 38.6461 20.5258C38.4616 20.3817 38.3235 20.1856 38.2493 19.9623C38.175 19.7389 38.1679 19.4983 38.2288 19.2709C38.2897 19.0434 38.416 18.8393 38.5916 18.6844C38.7672 18.5295 38.9843 18.4307 39.2154 18.4005C39.4466 18.3703 39.6814 18.41 39.8901 18.5147C40.17 18.6557 40.3832 18.9032 40.4828 19.2029C40.5825 19.5026 40.5605 19.8301 40.4218 20.1134V20.1134ZM41.8234 12.1915C41.9157 12.0042 42.0609 11.8486 42.2406 11.7446C42.4202 11.6406 42.6264 11.5928 42.833 11.6072C43.0395 11.6217 43.2372 11.6977 43.401 11.8257C43.5649 11.9536 43.6875 12.1279 43.7535 12.3263C43.8194 12.5247 43.8257 12.7385 43.7716 12.9406C43.7174 13.1426 43.6052 13.3239 43.4492 13.4615C43.2932 13.5991 43.1003 13.6869 42.895 13.7137C42.6897 13.7406 42.4811 13.7052 42.2956 13.6122C42.0467 13.4871 41.8571 13.2672 41.7686 13.0007C41.68 12.7343 41.6998 12.4433 41.8234 12.1915ZM45.3675 14.018L45.3252 13.9995C45.3321 13.9856 45.3412 13.9729 45.3481 13.959C45.5167 13.616 45.6168 13.2428 45.6428 12.8607C45.6687 12.4785 45.62 12.095 45.4993 11.7319C45.3787 11.3688 45.1885 11.0333 44.9396 10.7446C44.6907 10.4558 44.388 10.2194 44.0488 10.049C43.7095 9.87848 43.3404 9.77723 42.9625 9.75099C42.5846 9.72475 42.2052 9.77404 41.8461 9.89603C41.487 10.018 41.1552 10.2103 40.8696 10.462C40.584 10.7137 40.3503 11.0197 40.1817 11.3627C40.1748 11.3777 40.1702 11.3916 40.1634 11.4055L40.1234 11.3835C39.2764 10.9506 38.2939 10.8757 37.3923 11.1752C36.4906 11.4747 35.7435 12.1241 35.3154 12.9805C34.8872 13.8369 34.8131 14.8303 35.1093 15.742C35.4055 16.6537 36.0478 17.409 36.8948 17.8419C36.8098 17.9635 36.7334 18.091 36.6662 18.2234C36.3941 18.7803 36.2967 19.4079 36.387 20.0223C36.4773 20.6366 36.751 21.2085 37.1715 21.6613L36.3826 23.2704C36.1424 23.1844 35.8793 23.1904 35.6432 23.2871C35.407 23.3839 35.2141 23.5647 35.1008 23.7955C34.9875 24.0263 34.9617 24.2911 35.0283 24.5398C35.0949 24.7885 35.2493 25.0039 35.4623 25.1454L30.9121 33.992L32.7916 34.9446L37.3407 26.0968C37.5804 26.1806 37.8421 26.173 38.0767 26.0756C38.3114 25.9782 38.5027 25.7975 38.615 25.5675C38.7273 25.3376 38.7526 25.0741 38.6864 24.8265C38.6202 24.5789 38.4669 24.3643 38.2553 24.2229L39.0453 22.6138C39.6562 22.6792 40.2724 22.554 40.811 22.2553C41.3497 21.9565 41.7851 21.4984 42.0589 20.9423C42.1237 20.8087 42.1783 20.6704 42.2224 20.5284C43.0758 20.9501 44.0599 21.0118 44.9583 20.6998C45.8566 20.3879 46.5956 19.7279 47.0127 18.865C47.4297 18.0021 47.4907 17.007 47.1822 16.0987C46.8737 15.1904 46.2209 14.4432 45.3675 14.0215V14.018Z" fill="white"/>
<path d="M27.8887 48.7202H35.9528L34.8887 46.3682H28.9505L27.8887 48.7202Z" fill="white"/>
<path d="M33.1783 51.7442L33.9362 51.5812L33.2002 51.4082H31.3122L30.5762 51.5812L31.333 51.7442H33.1783Z" fill="white"/>
<path d="M31.2483 51.9782L30.4785 51.7451L29.9043 52.2763L31.0439 52.7531L31.2483 51.9782Z" fill="white"/>
<path d="M29.9043 52.417L32.2563 55.105L31.1497 52.9331L29.9043 52.417Z" fill="white"/>
<path d="M31.248 52.7531H33.6001L33.3692 52.0811H31.4776L31.248 52.7531Z" fill="white"/>
<path d="M31.248 53.0889L32.4228 55.1049L33.6001 53.0889H31.248Z" fill="white"/>
<path d="M32.5918 55.105L34.9438 52.417L33.6942 52.9327L32.5918 55.105Z" fill="white"/>
<path d="M33.6016 51.979L33.8051 52.7531L34.9456 52.2768L34.3648 51.7451L33.6016 51.979Z" fill="white"/>
<path d="M77.9531 45.0248V19.1523H98.4495V22.1268H81.1892V29.7204H91.6264V32.6982H81.1892V45.0248H77.9531Z" fill="white"/>
<path d="M82.2041 46.033H76.9453V18.1445H99.4577V23.1298H82.2041V28.7149H92.6372V33.7036H82.2041V46.033ZM78.9692 44.0228H80.1802V31.6934H90.6133V30.7251H80.1802V21.1196H97.4338V20.1548H78.9692V44.0228Z" fill="white"/>
<path d="M101.475 45.0248V19.1523H116.468C119.027 19.1523 121.032 19.7888 122.483 21.0616C123.934 22.3345 124.661 24.0964 124.663 26.3473C124.706 28.1048 124.1 29.8173 122.957 31.1636C121.815 32.5099 120.215 33.3974 118.458 33.6595L124.995 45.0248H121.393L114.856 33.7031H104.721V45.0214L101.475 45.0248ZM104.721 30.6884H116.254C117.895 30.6884 119.136 30.3289 119.978 29.6098C120.82 28.8908 121.242 27.8368 121.244 26.4478C121.244 25.0878 120.822 24.0294 119.978 23.2723C119.134 22.5153 117.946 22.1357 116.414 22.1335H104.721V30.6884Z" fill="white"/>
<path d="M126.673 46.033H120.752L114.234 34.7101H105.727V46.0297H100.465V18.1445H116.428C119.223 18.1445 121.468 18.8715 123.098 20.3052C124.729 21.739 125.613 23.806 125.613 26.3352C125.655 28.3291 124.966 30.2703 123.676 31.799C122.697 32.9589 121.411 33.8245 119.963 34.2981L126.673 46.033ZM121.931 44.023H123.19L116.823 32.9212L118.234 32.6733C119.752 32.447 121.136 31.6802 122.126 30.5159C123.111 29.3514 123.631 27.8685 123.588 26.3486C123.588 24.3822 122.99 22.8981 121.755 21.8161C120.52 20.734 118.717 20.1411 116.428 20.1411H102.49V44.0063H103.702V32.7001H115.412L121.931 44.023ZM116.216 31.6951H103.702V21.1293H116.381C118.16 21.1293 119.584 21.6017 120.617 22.5296C121.65 23.4576 122.211 24.8009 122.211 26.4491C122.211 28.0973 121.667 29.4641 120.597 30.3753C119.527 31.2865 118.096 31.6951 116.216 31.6951ZM105.727 29.6852H116.216C117.596 29.6852 118.626 29.4038 119.277 28.851C119.929 28.2983 120.185 27.5412 120.185 26.4491C120.185 25.357 119.882 24.5798 119.257 24.017C118.633 23.4542 117.643 23.1393 116.381 23.1393H105.727V29.6852Z" fill="white"/>
<path d="M124.658 45.0248L137.358 19.1523H140.042L152.883 45.0248H149.38L145.857 38.0576H131.543L128.114 45.0181L124.658 45.0248ZM133.016 35.0429H144.424L138.697 23.5805L133.016 35.0429Z" fill="white"/>
<path d="M154.563 46.033H148.803L145.272 39.0659H132.142L128.702 46.0263H122.979L136.71 18.1445H140.653L154.563 46.033ZM150.045 44.0233H151.308L139.424 20.161H137.993L126.241 44.0233H127.456L130.893 37.0562H146.514L150.045 44.0233ZM146.086 36.0513H131.381L138.703 21.3132L146.086 36.0513ZM134.64 34.0416H142.827L138.717 25.8418L134.64 34.0416Z" fill="white"/>
<path d="M177.532 36.7325L180.099 38.6622C179.004 40.8279 177.319 42.6351 175.242 43.8729C173.112 45.1073 170.69 45.737 168.233 45.695C164.37 45.695 161.182 44.413 158.67 41.8491C156.158 39.2852 154.901 36.0355 154.898 32.1C154.898 28.1511 156.159 24.8935 158.68 22.3274C161.201 19.7612 164.386 18.4793 168.233 18.4815C170.501 18.4532 172.741 18.9951 174.748 20.0582C176.707 21.1067 178.358 22.6556 179.535 24.5495L176.865 26.4792C176.072 24.9468 174.855 23.6794 173.36 22.8316C171.801 21.946 170.036 21.4925 168.246 21.5172C165.354 21.5172 162.956 22.5167 161.053 24.5159C159.151 26.515 158.191 29.0431 158.173 32.1C158.173 35.1592 159.123 37.6839 161.023 39.6741C162.924 41.6642 165.321 42.6604 168.216 42.6627C170.121 42.695 171.994 42.172 173.61 41.1566C175.28 40.0543 176.633 38.5285 177.532 36.7325V36.7325Z" fill="white"/>
<path d="M168.268 46.7035C164.137 46.7035 160.669 45.3084 157.961 42.5586C155.253 39.8087 153.891 36.2924 153.891 32.1004C153.891 27.9084 155.263 24.3686 157.974 21.6187C160.686 18.8689 164.15 17.4738 168.268 17.4738C170.706 17.4431 173.113 18.0207 175.274 19.1547C177.39 20.2865 179.175 21.9556 180.449 23.9955L180.964 24.8023L176.556 27.9588L176.02 26.9503C175.32 25.5863 174.235 24.4601 172.901 23.7131C171.487 22.9161 169.889 22.508 168.268 22.5298C165.627 22.5298 163.504 23.4072 161.78 25.2191C160.057 27.0311 159.186 29.28 159.186 32.1004C159.186 34.9209 160.03 37.1631 161.764 38.975C163.498 40.787 165.61 41.6644 168.254 41.6644C169.974 41.6964 171.666 41.2295 173.128 40.3197C174.645 39.3092 175.872 37.9187 176.69 36.2857L177.239 35.2503L181.443 38.3968L181.041 39.1599C179.851 41.478 178.036 43.4129 175.803 44.7437C173.512 46.066 170.909 46.7431 168.268 46.7035V46.7035ZM168.268 19.4908C164.656 19.4908 161.757 20.6506 159.4 23.0374C157.044 25.4242 155.899 28.3925 155.899 32.1139C155.899 35.8353 157.041 38.7666 159.39 41.1534C161.74 43.5402 164.642 44.7 168.268 44.7C170.551 44.7402 172.803 44.1594 174.785 43.0191C176.459 42.0271 177.858 40.6298 178.856 38.9549L177.892 38.2355C176.96 39.758 175.702 41.0524 174.209 42.0241C172.429 43.1472 170.363 43.7308 168.261 43.7049C165.088 43.7049 162.416 42.5956 160.324 40.4071C158.232 38.2187 157.184 35.4487 157.184 32.1341C157.184 28.8194 158.242 26.036 160.321 23.8509C162.4 21.6658 165.084 20.543 168.261 20.543C170.231 20.5203 172.172 21.0201 173.888 21.9919C175.215 22.7426 176.35 23.792 177.205 25.0577L178.21 24.3384C177.179 22.9414 175.851 21.793 174.323 20.9767C172.458 19.9859 170.378 19.4753 168.268 19.4908V19.4908Z" fill="white"/>
<path d="M185.811 45.0248V19.1523H200.586C203.092 19.1523 205.064 19.7776 206.501 21.0281C207.937 22.2786 208.657 23.9892 208.659 26.1597C208.659 28.4107 207.963 30.2306 206.571 31.6196C205.178 33.0086 203.321 33.7031 200.999 33.7031H188.99V45.0214L185.811 45.0248ZM189.006 30.6817H200.376C201.992 30.6817 203.216 30.3222 204.045 29.6031C204.875 28.8841 205.291 27.83 205.293 26.4411C205.293 25.0811 204.877 24.0227 204.045 23.2656C203.213 22.5086 202.043 22.129 200.532 22.1268H189L189.006 30.6817Z" fill="#E2BC72"/>
<path d="M213.699 45.0248V19.1523H228.692C231.249 19.1523 233.254 19.7888 234.708 21.0616C236.161 22.3345 236.888 24.0964 236.888 26.3473C236.931 28.1048 236.324 29.8173 235.182 31.1636C234.039 32.5099 232.44 33.3974 230.683 33.6595L237.22 45.0248H233.618L227.094 33.7031H216.939V45.0214L213.699 45.0248ZM216.939 30.6884H228.476C230.119 30.6884 231.36 30.3289 232.199 29.6098C233.039 28.8908 233.461 27.8368 233.465 26.4478C233.465 25.0878 233.043 24.0294 232.199 23.2723C231.355 22.5153 230.167 22.1357 228.635 22.1335H216.939V30.6884Z" fill="#E2BC72"/>
<path d="M253.983 45.6969C250.101 45.6969 246.896 44.4149 244.371 41.8507C241.846 39.2865 240.582 36.0364 240.58 32.1005C240.58 28.1511 241.848 24.8932 244.385 22.3267C246.921 19.7603 250.121 18.4782 253.983 18.4805C257.866 18.4805 261.083 19.7659 263.632 22.3368C266.182 24.9077 267.458 28.1578 267.461 32.087C267.461 36.023 266.189 39.273 263.646 41.8372C261.103 44.4014 257.882 45.688 253.983 45.6969ZM253.983 42.671C256.891 42.671 259.301 41.6747 261.213 39.6821C263.126 37.6894 264.081 35.1645 264.079 32.1072C264.079 29.0342 263.128 26.5014 261.227 24.5088C259.326 22.5162 256.911 21.521 253.983 21.5232C251.076 21.5232 248.666 22.5229 246.753 24.5222C244.841 26.5216 243.887 29.0499 243.891 32.1072C243.891 35.1668 244.845 37.6917 246.753 39.6821C248.661 41.6725 251.071 42.6666 253.983 42.6643V42.671Z" fill="#E2BC72"/>
<path d="M272.836 45.0248V19.1523H287.826C290.369 19.1523 292.37 19.7776 293.827 21.0281C295.285 22.2786 296.016 23.9892 296.02 26.1597C296.02 28.4107 295.313 30.2306 293.898 31.6196C292.483 33.0086 290.602 33.7042 288.253 33.7064H276.068V45.0248H272.836ZM276.078 30.6817H287.613C289.253 30.6817 290.494 30.3222 291.336 29.6031C292.178 28.8841 292.6 27.83 292.602 26.4411C292.602 25.0811 292.18 24.0227 291.336 23.2656C290.492 22.5086 289.304 22.129 287.772 22.1268H276.078V30.6817Z" fill="#E2BC72"/>
</svg>
