<svg width="321" height="70" viewBox="0 0 321 70" fill="none" xmlns="http://www.w3.org/2000/svg">
<path d="M34.7963 69.9567C26.7461 69.9568 18.9448 67.1508 12.7219 62.0171C6.49888 56.8833 2.23922 49.7393 0.66867 41.8024C-0.901882 33.8655 0.313849 25.6266 4.10871 18.4898C7.90357 11.3529 14.0428 5.75946 21.4803 2.6626C28.9177 -0.434251 37.1933 -0.842946 44.897 1.50615C52.6006 3.85524 59.2557 8.81678 63.7282 15.5454C68.2007 22.274 70.214 30.3533 69.4249 38.4068C68.6359 46.4602 65.0933 53.9895 59.4009 59.7118C56.1775 62.9702 52.343 65.5535 48.1196 67.312C43.8962 69.0706 39.3677 69.9695 34.7963 69.9567ZM34.7963 1.31041C16.3342 1.31041 1.30373 16.4145 1.30373 34.9784C1.30373 53.5422 16.3342 68.6463 34.7963 68.6463C53.2585 68.6463 68.289 53.5422 68.289 34.9784C68.289 16.4145 53.2585 1.31041 34.7963 1.31041Z" fill="black"/>
<path d="M34.7937 67.4064C27.3337 67.4058 20.1046 64.8185 14.3383 60.0855C8.5719 55.3525 4.62501 48.7665 3.17005 41.4497C1.7151 34.1329 2.84211 26.5379 6.35906 19.9589C9.87601 13.3799 15.5653 8.22382 22.4576 5.3692C29.3499 2.51459 37.0187 2.13804 44.1575 4.30371C51.2963 6.46939 57.4634 11.0433 61.6079 17.2461C65.7525 23.449 67.6181 30.897 66.887 38.3211C66.1558 45.7452 62.8731 52.6862 57.5982 57.9614C54.6104 60.9654 51.0565 63.3471 47.1421 64.9683C43.2277 66.5896 39.0306 67.4182 34.7937 67.4064ZM34.7937 4.13045C17.6792 4.13045 3.75594 18.0537 3.75594 35.167C3.75594 52.2803 17.6792 66.2035 34.7937 66.2035C51.9083 66.2035 65.8303 52.2803 65.8303 35.167C65.8303 18.0537 51.9071 4.12418 34.7937 4.12418V4.13045Z" fill="black"/>
<path d="M27.4257 22.3224C27.1977 22.4322 26.9425 22.4715 26.6922 22.4355C26.442 22.3994 26.208 22.2896 26.0199 22.1198C25.8317 21.9501 25.6978 21.7281 25.6352 21.4819C25.5725 21.2357 25.5838 20.9763 25.6677 20.7365C25.7516 20.4968 25.9044 20.2875 26.1066 20.135C26.3088 19.9825 26.5515 19.8937 26.8039 19.8798C27.0563 19.866 27.3071 19.9277 27.5247 20.0571C27.7422 20.1865 27.9167 20.3779 28.0261 20.6071C28.1722 20.9147 28.1911 21.268 28.0785 21.5895C27.966 21.911 27.7312 22.1746 27.4257 22.3224ZM27.0342 14.1153C27.372 13.9529 27.7501 13.8949 28.1207 13.9485C28.4913 14.0021 28.8378 14.165 29.1164 14.4166C29.395 14.6681 29.5931 14.9971 29.6858 15.3618C29.7785 15.7265 29.7615 16.1107 29.6371 16.4658C29.5127 16.8209 29.2864 17.1309 28.9868 17.3567C28.6872 17.5824 28.3277 17.7139 27.9538 17.7343C27.58 17.7548 27.2084 17.6633 26.8862 17.4716C26.564 17.2798 26.3056 16.9963 26.1436 16.6569C25.9271 16.201 25.8993 15.6774 26.0662 15.201C26.2332 14.7245 26.5813 14.334 27.0342 14.1153ZM22.9464 20.3077C22.6084 20.4706 22.2299 20.529 21.8588 20.4756C21.4877 20.4221 21.1407 20.2592 20.8618 20.0075C20.5828 19.7558 20.3843 19.4265 20.2915 19.0614C20.1987 18.6962 20.2156 18.3116 20.3402 17.9562C20.4648 17.6007 20.6915 17.2904 20.9916 17.0645C21.2916 16.8386 21.6515 16.7072 22.0259 16.687C22.4002 16.6668 22.7721 16.7587 23.0944 16.951C23.4168 17.1433 23.6753 17.4274 23.837 17.7674C24.0535 18.2231 24.0812 18.7465 23.9143 19.2227C23.7473 19.699 23.3992 20.0892 22.9464 20.3077ZM22.8013 12.6162C23.0041 12.5186 23.2311 12.4836 23.4537 12.5157C23.6763 12.5477 23.8844 12.6454 24.0517 12.7964C24.2191 12.9474 24.3382 13.1449 24.3939 13.3639C24.4496 13.5829 24.4395 13.8136 24.3649 14.0268C24.2902 14.2401 24.1544 14.4263 23.9745 14.5619C23.7946 14.6975 23.5787 14.7764 23.3542 14.7887C23.1297 14.801 22.9066 14.7461 22.7131 14.6309C22.5196 14.5158 22.3644 14.3455 22.2672 14.1417C22.1371 13.8681 22.1202 13.5539 22.2203 13.2678C22.3205 12.9818 22.5294 12.7475 22.8013 12.6162ZM45.0427 50.0401L45.6356 51.2852L44.3547 51.9027L43.7605 50.6564L42.4797 51.2739L31.0219 27.2271C31.2661 27.0839 31.4477 26.8535 31.5307 26.5818C31.6137 26.3101 31.592 26.0169 31.4699 25.7605C31.3477 25.5042 31.1342 25.3034 30.8715 25.1981C30.6089 25.0929 30.3166 25.0908 30.0525 25.1923L29.2207 23.4442C29.6834 22.962 29.9887 22.3492 30.0958 21.6878C30.2029 21.0265 30.1066 20.348 29.8198 19.7431C29.7497 19.5992 29.6694 19.4605 29.5797 19.3281C30.5051 18.8741 31.2132 18.0692 31.5483 17.0903C31.8834 16.1114 31.818 15.0388 31.3665 14.1084C30.915 13.178 30.1144 12.466 29.1407 12.1291C28.1671 11.7922 27.1003 11.8579 26.1749 12.3119C26.1586 12.3194 26.1461 12.3282 26.1311 12.3358C26.1236 12.3207 26.1186 12.3043 26.1111 12.2892C25.7416 11.5562 25.1014 10.9978 24.3275 10.7335C23.5536 10.4692 22.7075 10.52 21.9704 10.8751C21.2333 11.2302 20.6638 11.8613 20.3838 12.6333C20.1038 13.4053 20.1355 14.2569 20.4722 15.0057C20.4797 15.0208 20.4885 15.0346 20.4972 15.0497C20.481 15.0497 20.466 15.061 20.451 15.0685C19.5191 15.5083 18.7991 16.3023 18.4495 17.2757C18.0999 18.2492 18.1492 19.3224 18.5866 20.2593C19.024 21.1962 19.8137 21.9201 20.7819 22.2716C21.7501 22.6231 22.8176 22.5736 23.7495 22.1338C23.9656 22.8553 24.4243 23.479 25.0472 23.8981C25.6701 24.3172 26.4184 24.5057 27.1643 24.4314L27.9973 26.1795C27.7531 26.3228 27.5715 26.5531 27.4885 26.8249C27.4055 27.0966 27.4272 27.3897 27.5493 27.6461C27.6715 27.9024 27.8851 28.1032 28.1477 28.2085C28.4103 28.3138 28.7027 28.3159 28.9667 28.2143L40.4245 52.2611L42.6548 56.9419L43.8206 59.3905L45.8707 58.4032L44.7049 55.9547L45.9858 55.3385L45.3929 54.0922L46.675 53.4747L47.2679 54.721L49.1892 53.7954L46.9602 49.1133L45.0427 50.0401Z" fill="black"/>
<path d="M31.7981 40.4434L25.7474 52.6064L24.6702 52.1038L24.1547 53.0841L23.0775 52.5803L23.5943 51.6L21.9804 50.8448L20.0391 54.5297L21.6529 55.2861L22.1697 54.3045L23.2469 54.8083L22.7301 55.7886L23.806 56.2925L22.7911 58.2208L24.5133 59.0257L25.5282 57.0986L27.4683 53.4125L33.5203 41.2483L31.7981 40.4434Z" fill="black"/>
<path d="M49.162 19.5681C48.9955 19.9072 48.7333 20.1887 48.4085 20.3771C48.0838 20.5655 47.7111 20.6523 47.3376 20.6266C46.9641 20.6008 46.6065 20.4636 46.3101 20.2324C46.0136 20.0012 45.7917 19.6863 45.6722 19.3275C45.5528 18.9687 45.5413 18.5822 45.6391 18.2168C45.7369 17.8514 45.9397 17.5235 46.2218 17.2746C46.5039 17.0257 46.8526 16.867 47.2239 16.8185C47.5952 16.77 47.9724 16.8339 48.3078 17.0022C48.7569 17.2286 49.099 17.6258 49.2591 18.1068C49.4192 18.5877 49.3843 19.1132 49.162 19.5681ZM43.4803 16.7164C43.3137 17.0557 43.0513 17.3375 42.7263 17.526C42.4013 17.7145 42.0284 17.8014 41.6546 17.7756C41.2808 17.7498 40.9229 17.6125 40.6263 17.3811C40.3297 17.1497 40.1076 16.8345 39.9881 16.4754C39.8686 16.1164 39.8572 15.7295 39.9551 15.3639C40.0531 14.9982 40.2561 14.6702 40.5385 14.4212C40.8208 14.1722 41.1699 14.0134 41.5415 13.965C41.9131 13.9166 42.2905 13.9807 42.6261 14.1492C43.0753 14.3759 43.4174 14.7733 43.5775 15.2544C43.7376 15.7356 43.7026 16.2613 43.4803 16.7164ZM43.8336 21.8107C43.721 22.0395 43.5439 22.2293 43.3246 22.3563C43.1053 22.4834 42.8537 22.5418 42.6015 22.5242C42.3494 22.5067 42.1081 22.414 41.9081 22.2578C41.708 22.1016 41.5583 21.889 41.4778 21.6468C41.3972 21.4046 41.3895 21.1437 41.4556 20.897C41.5216 20.6504 41.6585 20.4291 41.849 20.2611C42.0394 20.0931 42.2748 19.9859 42.5254 19.9532C42.7761 19.9204 43.0307 19.9635 43.2571 20.0771C43.5606 20.23 43.7918 20.4984 43.8998 20.8234C44.0079 21.1484 43.9841 21.5034 43.8336 21.8107ZM45.3535 13.2203C45.4536 13.0171 45.611 12.8485 45.8059 12.7357C46.0007 12.6229 46.2243 12.5711 46.4482 12.5867C46.6722 12.6024 46.8866 12.6848 47.0643 12.8236C47.2419 12.9623 47.3749 13.1513 47.4464 13.3665C47.518 13.5816 47.5248 13.8134 47.4661 14.0325C47.4073 14.2517 47.2857 14.4482 47.1165 14.5975C46.9473 14.7467 46.7382 14.8419 46.5155 14.871C46.2929 14.9001 46.0667 14.8618 45.8655 14.7609C45.5956 14.6252 45.3901 14.3867 45.2941 14.0978C45.198 13.8089 45.2194 13.4933 45.3535 13.2203ZM49.1967 15.2009L49.1508 15.1808C49.1582 15.1658 49.1682 15.152 49.1756 15.137C49.3584 14.765 49.467 14.3603 49.4952 13.9459C49.5233 13.5315 49.4704 13.1156 49.3396 12.7219C49.2088 12.3282 49.0025 11.9644 48.7326 11.6512C48.4627 11.3381 48.1345 11.0818 47.7666 10.8969C47.3988 10.7121 46.9985 10.6023 46.5887 10.5738C46.1789 10.5454 45.7675 10.5988 45.3781 10.7311C44.9887 10.8634 44.6289 11.0719 44.3192 11.3448C44.0096 11.6177 43.7561 11.9496 43.5732 12.3216C43.5658 12.3379 43.5608 12.3529 43.5534 12.3679L43.51 12.3441C42.5915 11.8747 41.5262 11.7934 40.5485 12.1182C39.5707 12.443 38.7606 13.1471 38.2963 14.0759C37.832 15.0046 37.7517 16.0817 38.0729 17.0703C38.3941 18.059 39.0905 18.8781 40.009 19.3475C39.9168 19.4793 39.8339 19.6175 39.7611 19.7612C39.466 20.3651 39.3604 21.0456 39.4584 21.7118C39.5563 22.378 39.8531 22.9981 40.309 23.4891L39.4536 25.234C39.1931 25.1408 38.9079 25.1473 38.6518 25.2522C38.3957 25.3571 38.1864 25.5532 38.0636 25.8035C37.9407 26.0538 37.9128 26.3409 37.985 26.6106C38.0572 26.8802 38.2247 27.1138 38.4556 27.2672L33.5215 36.8604L35.5596 37.8933L40.4925 28.2989C40.7525 28.3898 41.0363 28.3816 41.2907 28.276C41.5451 28.1703 41.7526 27.9744 41.8744 27.725C41.9961 27.4756 42.0236 27.1899 41.9518 26.9215C41.88 26.653 41.7138 26.4203 41.4843 26.2669L42.3409 24.522C43.0035 24.5929 43.6716 24.4572 44.2557 24.1333C44.8398 23.8093 45.312 23.3125 45.6089 22.7095C45.6791 22.5646 45.7384 22.4146 45.7862 22.2607C46.7116 22.718 47.7787 22.7848 48.7529 22.4466C49.727 22.1083 50.5284 21.3926 50.9806 20.4569C51.4329 19.5212 51.499 18.4422 51.1645 17.4572C50.8299 16.4722 50.1221 15.6619 49.1967 15.2046V15.2009Z" fill="black"/>
<path d="M30.2422 52.8318H38.9868L37.8329 50.2812H31.3936L30.2422 52.8318Z" fill="black"/>
<path d="M35.9779 56.1114L36.7998 55.9347L36.0017 55.7471H33.9544L33.1562 55.9347L33.9769 56.1114H35.9779Z" fill="black"/>
<path d="M33.8852 56.3641L33.0504 56.1113L32.4277 56.6873L33.6635 57.2044L33.8852 56.3641Z" fill="black"/>
<path d="M32.4277 56.8398L34.9782 59.7547L33.7782 57.3995L32.4277 56.8398Z" fill="black"/>
<path d="M33.8848 57.2043H36.4353L36.185 56.4756H34.1337L33.8848 57.2043Z" fill="black"/>
<path d="M33.8848 57.5684L35.1586 59.7545L36.4353 57.5684H33.8848Z" fill="black"/>
<path d="M35.3438 59.7547L37.8943 56.8398L36.5391 57.3991L35.3438 59.7547Z" fill="black"/>
<path d="M36.4355 56.365L36.6563 57.2044L37.893 56.6878L37.2632 56.1113L36.4355 56.365Z" fill="black"/>
<path d="M84.5312 48.8242V20.7686H106.757V23.994H88.0404V32.2283H99.3583V35.4574H88.0404V48.8242H84.5312Z" fill="black"/>
<path d="M89.14 49.9166H83.4375V19.6748H107.85V25.0808H89.14V31.1372H100.454V36.5468H89.14V49.9166ZM85.6322 47.7367H86.9453V34.367H98.2588V33.317H86.9453V22.9009H105.655V21.8547H85.6322V47.7367Z" fill="black"/>
<path d="M110.035 48.8242V20.7686H126.293C129.069 20.7686 131.243 21.4587 132.816 22.8389C134.39 24.2192 135.178 26.1298 135.181 28.5707C135.227 30.4764 134.569 32.3334 133.33 33.7933C132.092 35.2532 130.357 36.2156 128.452 36.4999L135.54 48.8242H131.634L124.546 36.5471H113.555V48.8205L110.035 48.8242ZM113.555 33.2781H126.062C127.841 33.2781 129.187 32.8882 130.1 32.1085C131.013 31.3288 131.471 30.1858 131.473 28.6796C131.473 27.2049 131.015 26.0571 130.1 25.2362C129.185 24.4153 127.896 24.0037 126.235 24.0012H113.555V33.2781Z" fill="black"/>
<path d="M137.363 49.9166H130.943L123.874 37.6382H114.65V49.9129H108.943V19.6748H126.254C129.285 19.6748 131.719 20.4631 133.487 22.0178C135.255 23.5726 136.214 25.814 136.214 28.5566C136.259 30.7187 135.512 32.8237 134.113 34.4815C133.051 35.7393 131.657 36.6779 130.086 37.1914L137.363 49.9166ZM132.22 47.737H133.586L126.682 35.6984L128.212 35.4296C129.859 35.1842 131.359 34.3526 132.433 33.0901C133.501 31.8273 134.065 30.2193 134.018 28.5711C134.018 26.4388 133.37 24.8295 132.03 23.6562C130.69 22.4828 128.736 21.8398 126.254 21.8398H111.14V47.7188H112.454V35.4586H125.152L132.22 47.737ZM126.023 34.3688H112.454V22.9115H126.203C128.132 22.9115 129.676 23.4237 130.796 24.4299C131.917 25.4362 132.524 26.8928 132.524 28.6801C132.524 30.4674 131.935 31.9495 130.774 32.9376C129.614 33.9257 128.062 34.3688 126.023 34.3688ZM114.65 32.1892H126.023C127.52 32.1892 128.637 31.8841 129.343 31.2847C130.05 30.6853 130.328 29.8643 130.328 28.6801C130.328 27.4959 129.998 26.6531 129.321 26.0428C128.644 25.4325 127.572 25.091 126.203 25.091H114.65V32.1892Z" fill="black"/>
<path d="M135.176 48.8242L148.947 20.7686H151.858L165.782 48.8242H161.983L158.163 41.269H142.642L138.923 48.8169L135.176 48.8242ZM144.239 38H156.61L150.399 25.5704L144.239 38Z" fill="black"/>
<path d="M167.605 49.9166H161.359L157.53 42.3616H143.292L139.561 49.9093H133.355L148.246 19.6748H152.521L167.605 49.9166ZM162.706 47.7373H164.075L151.189 21.8614H149.637L136.893 47.7373H138.211L141.938 40.1822H158.877L162.706 47.7373ZM158.413 39.0926H142.467L150.407 23.1109L158.413 39.0926ZM146.001 36.9133H154.879L150.422 28.0216L146.001 36.9133Z" fill="black"/>
<path d="M192.512 39.8313L195.296 41.9238C194.108 44.2722 192.281 46.232 190.029 47.5742C187.72 48.9127 185.093 49.5955 182.428 49.55C178.24 49.55 174.783 48.1599 172.059 45.3796C169.334 42.5994 167.971 39.0755 167.969 34.8079C167.969 30.5257 169.336 26.9932 172.07 24.2106C174.803 21.4279 178.256 20.0378 182.428 20.0402C184.888 20.0095 187.316 20.5971 189.494 21.7499C191.618 22.8869 193.408 24.5665 194.684 26.6202L191.788 28.7127C190.929 27.051 189.609 25.6767 187.988 24.7574C186.297 23.797 184.384 23.3052 182.443 23.332C179.306 23.332 176.706 24.4159 174.643 26.5837C172.58 28.7516 171.539 31.4929 171.519 34.8079C171.519 38.1252 172.55 40.8629 174.61 43.021C176.671 45.1791 179.271 46.2594 182.41 46.2618C184.476 46.2969 186.507 45.7297 188.259 44.6286C190.071 43.4333 191.537 41.7788 192.512 39.8313Z" fill="black"/>
<path d="M182.465 50.6437C177.986 50.6437 174.225 49.1309 171.289 46.149C168.352 43.1672 166.875 39.3541 166.875 34.8084C166.875 30.2627 168.363 26.4241 171.303 23.4422C174.244 20.4603 178.001 18.9476 182.465 18.9476C185.109 18.9143 187.719 19.5405 190.063 20.7702C192.358 21.9976 194.293 23.8075 195.674 26.0195L196.233 26.8944L191.453 30.3173L190.872 29.2237C190.113 27.7446 188.936 26.5234 187.489 25.7133C185.956 24.8491 184.223 24.4065 182.465 24.4301C179.601 24.4301 177.3 25.3816 175.431 27.3464C173.561 29.3113 172.617 31.75 172.617 34.8084C172.617 37.8668 173.532 40.2983 175.412 42.2631C177.293 44.2279 179.583 45.1794 182.451 45.1794C184.315 45.2141 186.151 44.7078 187.736 43.7212C189.38 42.6255 190.712 41.1176 191.598 39.3468L192.193 38.2241L196.752 41.6361L196.317 42.4636C195.026 44.9772 193.058 47.0755 190.636 48.5185C188.153 49.9524 185.33 50.6866 182.465 50.6437ZM182.465 21.1348C178.549 21.1348 175.405 22.3924 172.85 24.9806C170.294 27.5688 169.053 30.7876 169.053 34.823C169.053 38.8584 170.291 42.0371 172.839 44.6253C175.387 47.2135 178.534 48.4711 182.465 48.4711C184.942 48.5147 187.384 47.8849 189.533 46.6484C191.347 45.5727 192.865 44.0575 193.947 42.2412L192.901 41.4611C191.891 43.1121 190.527 44.5158 188.908 45.5694C186.977 46.7873 184.738 47.4201 182.458 47.3921C179.017 47.3921 176.12 46.1891 173.852 43.816C171.583 41.4429 170.447 38.4391 170.447 34.8448C170.447 31.2505 171.594 28.2322 173.848 25.8627C176.102 23.4933 179.013 22.2757 182.458 22.2757C184.594 22.2511 186.699 22.793 188.56 23.8469C189.999 24.6609 191.23 25.7989 192.157 27.1714L193.246 26.3913C192.129 24.8765 190.689 23.6312 189.032 22.746C187.009 21.6716 184.753 21.1179 182.465 21.1348Z" fill="black"/>
<path d="M201.49 48.8242V20.7686H217.512C220.23 20.7686 222.368 21.4466 223.926 22.8026C225.484 24.1587 226.264 26.0135 226.267 28.3672C226.267 30.8081 225.512 32.7817 224.002 34.2878C222.492 35.794 220.479 36.5471 217.961 36.5471H204.938V48.8205L201.49 48.8242ZM204.956 33.2708H217.284C219.038 33.2708 220.364 32.8809 221.264 32.1012C222.163 31.3215 222.614 30.1785 222.617 28.6723C222.617 27.1976 222.166 26.0498 221.264 25.2289C220.362 24.4081 219.092 23.9964 217.454 23.994H204.949L204.956 33.2708Z" fill="#E2BC72"/>
<path d="M231.732 48.8242V20.7686H247.991C250.763 20.7686 252.938 21.4587 254.514 22.8389C256.09 24.2192 256.878 26.1298 256.878 28.5707C256.924 30.4764 256.266 32.3334 255.028 33.7933C253.789 35.2532 252.054 36.2156 250.149 36.4999L257.238 48.8242H253.332L246.258 36.5471H235.245V48.8205L231.732 48.8242ZM235.245 33.2781H247.756C249.537 33.2781 250.883 32.8882 251.794 32.1085C252.704 31.3288 253.162 30.1858 253.167 28.6796C253.167 27.2049 252.709 26.0571 251.794 25.2362C250.878 24.4153 249.59 24.0037 247.928 24.0012H235.245V33.2781Z" fill="#E2BC72"/>
<path d="M275.415 49.5521C271.205 49.5521 267.73 48.1619 264.992 45.3813C262.254 42.6007 260.883 39.0764 260.881 34.8084C260.881 30.5257 262.256 26.9929 265.006 24.2099C267.757 21.4269 271.226 20.0366 275.415 20.0391C279.626 20.0391 283.113 21.433 285.878 24.2208C288.643 27.0087 290.027 30.533 290.03 34.7938C290.03 39.0618 288.651 42.5861 285.893 45.3667C283.135 48.1473 279.643 49.5424 275.415 49.5521ZM275.415 46.2709C278.568 46.2709 281.182 45.1905 283.255 43.0297C285.329 40.8689 286.365 38.1309 286.362 34.8157C286.362 31.4834 285.332 28.7368 283.27 26.5761C281.208 24.4153 278.59 23.3361 275.415 23.3386C272.262 23.3386 269.649 24.4226 267.575 26.5906C265.501 28.7587 264.467 31.5004 264.472 34.8157C264.472 38.1334 265.506 40.8714 267.575 43.0297C269.644 45.188 272.257 46.266 275.415 46.2636V46.2709Z" fill="#E2BC72"/>
<path d="M295.859 48.8242V20.7686H312.115C314.872 20.7686 317.041 21.4466 318.622 22.8026C320.202 24.1587 320.995 26.0135 321 28.3672C321 30.8081 320.233 32.7817 318.699 34.2878C317.165 35.794 315.124 36.5483 312.577 36.5507H299.364V48.8242H295.859ZM299.375 33.2708H311.883C313.662 33.2708 315.008 32.8809 315.921 32.1012C316.833 31.3215 317.291 30.1785 317.293 28.6723C317.293 27.1976 316.836 26.0498 315.921 25.2289C315.006 24.4081 313.717 23.9964 312.056 23.994H299.375V33.2708Z" fill="#E2BC72"/>
</svg>
