<svg width="40" height="40" viewBox="0 0 40 40" fill="none" xmlns="http://www.w3.org/2000/svg">
<path d="M34.7733 40H5.22667C3.84047 40 2.51105 39.4493 1.53086 38.4691C0.550665 37.489 0 36.1595 0 34.7733V5.22667C0 3.84047 0.550665 2.51105 1.53086 1.53086C2.51105 0.550665 3.84047 0 5.22667 0H34.7733C36.1595 0 37.489 0.550665 38.4691 1.53086C39.4493 2.51105 40 3.84047 40 5.22667V34.7733C40 36.1595 39.4493 37.489 38.4691 38.4691C37.489 39.4493 36.1595 40 34.7733 40ZM5.22667 2.66667C4.54771 2.66667 3.89657 2.93638 3.41647 3.41647C2.93638 3.89657 2.66667 4.54771 2.66667 5.22667V34.7733C2.66667 35.1095 2.73288 35.4424 2.86154 35.753C2.99019 36.0636 3.17876 36.3458 3.41647 36.5835C3.65419 36.8212 3.9364 37.0098 4.247 37.1385C4.55759 37.2671 4.89048 37.3333 5.22667 37.3333H34.7733C35.1095 37.3333 35.4424 37.2671 35.753 37.1385C36.0636 37.0098 36.3458 36.8212 36.5835 36.5835C36.8212 36.3458 37.0098 36.0636 37.1385 35.753C37.2671 35.4424 37.3333 35.1095 37.3333 34.7733V5.22667C37.3333 4.89048 37.2671 4.55759 37.1385 4.247C37.0098 3.9364 36.8212 3.65419 36.5835 3.41647C36.3458 3.17876 36.0636 2.99019 35.753 2.86154C35.4424 2.73288 35.1095 2.66667 34.7733 2.66667H5.22667Z" fill="#BC913B"/>
<path d="M25.7741 14.4398C27.2468 14.4398 28.4408 13.2459 28.4408 11.7731C28.4408 10.3004 27.2468 9.10645 25.7741 9.10645C24.3013 9.10645 23.1074 10.3004 23.1074 11.7731C23.1074 13.2459 24.3013 14.4398 25.7741 14.4398Z" fill="#BC913B"/>
<path d="M1.33398 24.6668L14.0407 14.4402L16.3873 14.1602L24.0806 22.3735C24.0806 22.3735 25.414 24.2002 26.5473 22.9468L30.374 18.8802C30.374 18.8802 31.134 17.2135 32.7606 18.8802C34.3873 20.5468 38.6673 26.0002 38.6673 26.0002L38.574 35.6402C38.574 35.6402 38.174 38.6668 34.254 38.6668C30.334 38.6668 4.92065 38.2535 4.92065 38.2535C4.92065 38.2535 1.33398 39.1335 1.33398 34.7735C1.33398 30.4135 1.33398 24.6668 1.33398 24.6668Z" fill="#BC913B"/>
</svg>
