<svg width="21" height="14" viewBox="0 0 21 14" fill="none" xmlns="http://www.w3.org/2000/svg">
<path d="M19.8847 4.57944C19.8392 4.44706 19.6781 4.3441 19.5435 4.3441C18.9608 4.3441 18.3782 4.3441 17.7955 4.3441C17.661 4.3441 17.4998 4.44706 17.4543 4.57944C17.4098 4.70901 17.3765 4.82462 17.3544 4.93334L16.1868 1.70305C15.9942 1.17038 15.4842 0.8125 14.9178 0.8125H5.98746C5.42105 0.8125 4.91111 1.17038 4.71843 1.70314L3.55076 4.93373C3.52861 4.82491 3.49536 4.70915 3.45081 4.57944C3.40534 4.44706 3.24412 4.3441 3.10961 4.3441C2.52696 4.3441 1.94432 4.3441 1.36162 4.3441C1.22711 4.3441 1.06589 4.44706 1.02042 4.57944C0.843397 5.09485 0.843494 5.38991 1.02047 5.90537C1.06594 6.03775 1.22716 6.14071 1.36167 6.14071C1.94437 6.14071 2.52701 6.14071 3.10966 6.14071C3.11131 6.14071 3.11305 6.14027 3.11475 6.14022L3.08838 6.21327C2.73196 6.33169 2.47461 6.66722 2.47461 7.06344V9.76848V9.99141V12.9847C2.47461 13.2227 2.66744 13.4155 2.90539 13.4155H5.07345C5.31136 13.4155 5.50423 13.2227 5.50423 12.9847V10.8877H15.401V12.9847C15.401 13.2227 15.5939 13.4155 15.8318 13.4155H17.9998C18.2378 13.4155 18.4306 13.2227 18.4306 12.9847V9.99141V9.76848V7.06344C18.4306 6.66732 18.1733 6.33184 17.8171 6.21332L17.7907 6.14022C17.7923 6.14027 17.7939 6.14066 17.7955 6.14066C18.3782 6.14066 18.9608 6.14066 19.5435 6.14066C19.6781 6.14066 19.8393 6.0377 19.8847 5.90532C20.0617 5.38991 20.0616 5.09485 19.8847 4.57944ZM6.15241 2.39776H14.7516L16.1141 6.16713H4.78998L6.15241 2.39776ZM6.39226 8.82253H4.57849C4.18935 8.82253 3.87393 8.50712 3.87393 8.11797C3.87393 7.72888 4.1893 7.41342 4.57849 7.41342H6.39226C6.78135 7.41342 7.09681 7.72883 7.09681 8.11797C7.09686 8.50712 6.78135 8.82253 6.39226 8.82253ZM16.3266 8.82253H14.5128C14.1237 8.82253 13.8083 8.50712 13.8083 8.11797C13.8083 7.72888 14.1237 7.41342 14.5128 7.41342H16.3266C16.7157 7.41342 17.0311 7.72883 17.0311 8.11797C17.0311 8.50712 16.7157 8.82253 16.3266 8.82253Z" fill="black"/>
</svg>
