<svg width="9" height="15" viewBox="0 0 9 15" fill="none" xmlns="http://www.w3.org/2000/svg">
<path d="M5.66266 13.1748H5.22499C5.12598 13.1748 5.04573 13.0945 5.04573 12.9955V7.17311C5.04573 6.87639 5.15759 6.5906 5.35902 6.37273L6.01317 5.66519L6.0331 5.55962L8.14479 3.31595L8.24591 3.25022L8.91439 2.5272C9.04795 2.38273 8.94548 2.14844 8.74874 2.14844H0.353973C0.157228 2.14844 0.0547566 2.38273 0.188323 2.5272L0.856804 3.25022L1.04348 3.34309L3.14419 5.62082L3.17187 5.7542L3.74374 6.37273C3.94517 6.5906 4.05703 6.87639 4.05703 7.17311V12.9955C4.05703 13.0945 3.97678 13.1748 3.87777 13.1748H3.4401C3.07846 13.1748 2.7853 13.4679 2.7853 13.8296V13.9777C2.7853 14.0648 2.8559 14.1354 2.94299 14.1354H6.15985C6.24694 14.1354 6.31754 14.0648 6.31754 13.9777V13.8296C6.31746 13.468 6.0243 13.1748 5.66266 13.1748Z" fill="black"/>
<path d="M5.04532 7.17295V12.9954C5.04532 13.0943 5.12573 13.1747 5.22463 13.1747H5.66228C6.024 13.1747 6.31708 13.4678 6.31708 13.8295V13.9778C6.31708 14.0646 6.24648 14.1352 6.15962 14.1352H5.62895C5.71581 14.1352 5.7864 14.0646 5.7864 13.9778V13.8295C5.7864 13.4678 5.49333 13.1747 5.13161 13.1747H4.69396C4.59505 13.1747 4.51465 13.0943 4.51465 12.9954V6.52799C4.51465 6.23128 4.62672 5.94549 4.82818 5.72779L7.91082 2.52697C8.04446 2.38268 7.94191 2.14844 7.74522 2.14844H8.74849C8.94518 2.14844 9.04773 2.38268 8.91408 2.52697L8.2456 3.25007L8.14451 3.31582L6.03855 5.58247L6.01297 5.66516L5.35882 6.37275C5.15739 6.59044 5.04532 6.87623 5.04532 7.17295Z" fill="black"/>
<path d="M0.857422 3.25L3.09016 5.66496C3.87829 6.51741 5.22566 6.51741 6.01378 5.66496L8.24652 3.25H0.857422Z" fill="black"/>
<path d="M8.24535 3.25L6.01256 5.66491C5.49003 6.23004 4.72205 6.42056 4.03418 6.23621C4.38414 6.14263 4.71333 5.95211 4.97895 5.66491L7.21172 3.25H8.24535Z" fill="black"/>
<path d="M4.03391 5.75402C3.98868 5.75402 3.94323 5.73862 3.90602 5.7071C3.82254 5.63641 3.81216 5.51143 3.88286 5.42795L7.73161 0.882588C7.80228 0.799113 7.92726 0.788704 8.01076 0.85943C8.09424 0.930129 8.10462 1.05511 8.03392 1.13858L4.18517 5.68395C4.14601 5.73021 4.09014 5.75402 4.03391 5.75402Z" fill="black"/>
<path d="M5.40943 4.69694C5.40943 5.05973 5.11534 5.35379 4.75258 5.35379C4.55698 5.35379 4.38136 5.26831 4.26102 5.13264C4.15815 5.01669 4.0957 4.8641 4.0957 4.69692C4.0957 4.35018 4.36435 4.06619 4.70486 4.04176C4.7206 4.04064 4.73652 4.04004 4.75255 4.04004C5.11534 4.04009 5.40943 4.33416 5.40943 4.69694Z" fill="black"/>
<path d="M5.40927 4.6971C5.40927 5.0597 5.11513 5.35384 4.7525 5.35384C4.55727 5.35384 4.38181 5.26883 4.26172 5.13365C4.60286 5.10987 4.8723 4.82588 4.8723 4.47865C4.8723 4.31068 4.80962 4.15784 4.70577 4.04181C4.72115 4.04064 4.73684 4.04004 4.7525 4.04004C5.11513 4.04004 5.40927 4.33421 5.40927 4.6971Z" fill="black"/>
</svg>
