<svg width="52" height="52" viewBox="0 0 52 52" fill="none" xmlns="http://www.w3.org/2000/svg">
<path d="M3.39128 3.6102C-0.682515 7.84168 0.151252 12.3367 0.151252 25.9923C0.151252 37.3324 -1.82732 48.7006 8.5278 51.3768C11.7613 52.2084 40.4118 52.2084 43.641 51.3725C47.9524 50.2601 51.4603 46.763 51.9398 40.6653C52.0068 39.8143 52.0068 12.1855 51.9377 11.3171C51.4279 4.82197 47.4297 1.07866 42.1614 0.320496C40.954 0.145534 40.7121 0.0936939 34.5171 0.0828939C12.5433 0.0936939 7.72643 -0.884794 3.39128 3.6102Z" fill="url(#paint0_linear_393_129)"/>
<path d="M26.0665 6.8632C18.2235 6.8632 10.7758 6.16551 7.93102 13.4664C6.75597 16.4818 6.92661 20.3979 6.92661 26.0053C6.92661 30.9258 6.76893 35.5504 7.93102 38.542C10.7693 45.8472 18.2775 45.1474 26.0622 45.1474C33.5726 45.1474 41.3163 45.9293 44.1956 38.542C45.3728 35.4964 45.2 31.6386 45.2 26.0053C45.2 18.5273 45.6125 13.6997 41.9859 10.0751C38.3138 6.40312 33.3479 6.8632 26.0579 6.8632H26.0665ZM24.3515 10.3127C40.7114 10.2868 42.7937 8.4681 41.6446 33.7338C41.2363 42.6698 34.4323 41.6892 26.0687 41.6892C10.819 41.6892 10.3805 41.2528 10.3805 25.9966C10.3805 10.5633 11.5901 10.3214 24.3515 10.3084V10.3127ZM36.2834 13.4901C35.0155 13.4901 33.9873 14.5183 33.9873 15.7862C33.9873 17.0542 35.0155 18.0823 36.2834 18.0823C37.5513 18.0823 38.5795 17.0542 38.5795 15.7862C38.5795 14.5183 37.5513 13.4901 36.2834 13.4901ZM26.0665 16.175C20.6384 16.175 16.2384 20.5772 16.2384 26.0053C16.2384 31.4334 20.6384 35.8334 26.0665 35.8334C31.4947 35.8334 35.8925 31.4334 35.8925 26.0053C35.8925 20.5772 31.4947 16.175 26.0665 16.175ZM26.0665 19.6246C34.5014 19.6246 34.5122 32.386 26.0665 32.386C17.6338 32.386 17.6209 19.6246 26.0665 19.6246Z" fill="white"/>
<defs>
<linearGradient id="paint0_linear_393_129" x1="3.49068" y1="48.6122" x2="51.6709" y2="6.91282" gradientUnits="userSpaceOnUse">
<stop stop-color="#FFDD55"/>
<stop offset="0.5" stop-color="#FF543E"/>
<stop offset="1" stop-color="#C837AB"/>
</linearGradient>
</defs>
</svg>
