<svg width="50" height="51" viewBox="0 0 50 51" fill="none" xmlns="http://www.w3.org/2000/svg">
<path d="M3.26149 3.47203C-0.656393 7.54156 0.145463 11.8645 0.145463 24.9975C0.145463 35.9036 -1.75739 46.8367 8.20142 49.4105C11.3112 50.2103 38.8652 50.2103 41.9708 49.4063C46.1172 48.3365 49.4908 44.9733 49.952 39.1089C50.0164 38.2905 50.0164 11.7191 49.9499 10.884C49.4596 4.63742 45.6145 1.03738 40.5478 0.30823C39.3866 0.139964 39.1539 0.090108 33.1961 0.0797213C12.0632 0.090108 7.43072 -0.850931 3.26149 3.47203Z" fill="url(#paint0_linear_929_17169)"/>
<path d="M25.07 6.60077C17.5271 6.60077 10.3644 5.92979 7.62858 12.9512C6.4985 15.8512 6.66261 19.6174 6.66261 25.0102C6.66261 29.7424 6.51096 34.19 7.62858 37.0672C10.3582 44.0928 17.5791 43.4197 25.0658 43.4197C32.2888 43.4197 39.7361 44.1717 42.5052 37.0672C43.6373 34.1381 43.4711 30.428 43.4711 25.0102C43.4711 17.8185 43.8679 13.1756 40.38 9.68979C36.8486 6.1583 32.0727 6.60077 25.0617 6.60077H25.07ZM23.4206 9.9183C39.1544 9.89337 41.157 8.14425 40.0518 32.443C39.6592 41.037 33.1156 40.0939 25.0721 40.0939C10.406 40.0939 9.98429 39.6742 9.98429 25.0019C9.98429 10.1593 11.1476 9.92661 23.4206 9.91414V9.9183ZM34.8958 12.9741C33.6764 12.9741 32.6876 13.9629 32.6876 15.1823C32.6876 16.4017 33.6764 17.3905 34.8958 17.3905C36.1153 17.3905 37.1041 16.4017 37.1041 15.1823C37.1041 13.9629 36.1153 12.9741 34.8958 12.9741ZM25.07 15.5562C19.8496 15.5562 15.6181 19.7899 15.6181 25.0102C15.6181 30.2306 19.8496 34.4622 25.07 34.4622C30.2904 34.4622 34.5198 30.2306 34.5198 25.0102C34.5198 19.7899 30.2904 15.5562 25.07 15.5562ZM25.07 18.8737C33.182 18.8737 33.1924 31.1467 25.07 31.1467C16.96 31.1467 16.9476 18.8737 25.07 18.8737Z" fill="white"/>
<defs>
<linearGradient id="paint0_linear_929_17169" x1="3.35708" y1="46.7517" x2="49.6933" y2="6.64824" gradientUnits="userSpaceOnUse">
<stop stop-color="#FFDD55"/>
<stop offset="0.5" stop-color="#FF543E"/>
<stop offset="1" stop-color="#C837AB"/>
</linearGradient>
</defs>
</svg>
