<svg width="50" height="50" viewBox="0 0 50 50" fill="none" xmlns="http://www.w3.org/2000/svg">
<path d="M43.1818 0H6.81818C3.0526 0 0 3.0526 0 6.81818V43.1818C0 46.9474 3.0526 50 6.81818 50H43.1818C46.9474 50 50 46.9474 50 43.1818V6.81818C50 3.0526 46.9474 0 43.1818 0Z" fill="#0077B5"/>
<path d="M18.011 13.6364C18.011 14.4792 17.7611 15.3031 17.2928 16.0039C16.8246 16.7046 16.1591 17.2508 15.3804 17.5734C14.6017 17.8959 13.7449 17.9803 12.9183 17.8158C12.0917 17.6514 11.3324 17.2456 10.7364 16.6496C10.1404 16.0536 9.73459 15.2943 9.57016 14.4677C9.40574 13.6411 9.49013 12.7843 9.81266 12.0056C10.1352 11.2269 10.6814 10.5614 11.3822 10.0932C12.0829 9.62492 12.9068 9.375 13.7496 9.375C14.8798 9.375 15.9637 9.82396 16.7629 10.6231C17.562 11.4223 18.011 12.5062 18.011 13.6364Z" fill="white"/>
<path d="M17.0456 20.7385V39.5652C17.0464 39.7041 17.0197 39.8417 16.967 39.9702C16.9144 40.0988 16.8369 40.2156 16.739 40.3141C16.641 40.4126 16.5246 40.4907 16.3963 40.5441C16.2681 40.5974 16.1305 40.6248 15.9917 40.6248H11.5002C11.3613 40.6252 11.2237 40.5981 11.0953 40.5451C10.9669 40.4922 10.8503 40.4143 10.7521 40.3161C10.6539 40.2179 10.576 40.1013 10.523 39.9729C10.4701 39.8445 10.443 39.7069 10.4434 39.568V20.7385C10.4434 20.4582 10.5547 20.1894 10.7529 19.9912C10.9511 19.793 11.2199 19.6816 11.5002 19.6816H15.9917C16.2715 19.6824 16.5395 19.7941 16.7371 19.9922C16.9347 20.1903 17.0456 20.4587 17.0456 20.7385Z" fill="white"/>
<path d="M40.5224 30.5396V39.6532C40.5228 39.7809 40.4979 39.9074 40.4492 40.0255C40.4005 40.1435 40.3289 40.2508 40.2386 40.3411C40.1483 40.4314 40.0411 40.5029 39.923 40.5516C39.805 40.6003 39.6785 40.6252 39.5508 40.6248H34.7212C34.5935 40.6252 34.467 40.6003 34.349 40.5516C34.2309 40.5029 34.1237 40.4314 34.0334 40.3411C33.9431 40.2508 33.8715 40.1435 33.8228 40.0255C33.7741 39.9074 33.7493 39.7809 33.7497 39.6532V30.8208C33.7497 29.5027 34.136 25.0481 30.3036 25.0481C27.3349 25.0481 26.7298 28.0964 26.6104 29.4657V39.6532C26.6105 39.9085 26.5101 40.1535 26.3309 40.3353C26.1518 40.5171 25.9083 40.6211 25.6531 40.6248H20.9883C20.8608 40.6248 20.7346 40.5997 20.6169 40.5508C20.4992 40.5019 20.3923 40.4303 20.3023 40.3401C20.2123 40.2498 20.141 40.1427 20.0925 40.0248C20.0439 39.907 20.0192 39.7807 20.0195 39.6532V20.6561C20.0192 20.5286 20.0439 20.4023 20.0925 20.2845C20.141 20.1666 20.2123 20.0595 20.3023 19.9692C20.3923 19.879 20.4992 19.8074 20.6169 19.7585C20.7346 19.7096 20.8608 19.6845 20.9883 19.6845H25.6531C25.9107 19.6845 26.1579 19.7868 26.3401 19.9691C26.5223 20.1513 26.6246 20.3984 26.6246 20.6561V22.2981C27.7269 20.6447 29.3604 19.3691 32.8462 19.3691C40.5678 19.3691 40.5224 26.5794 40.5224 30.5396Z" fill="white"/>
</svg>
