<svg width="87" height="87" viewBox="0 0 87 87" fill="none" xmlns="http://www.w3.org/2000/svg">
<g filter="url(#filter0_di_1338_4077)">
<rect x="7" y="7" width="73" height="73" rx="6" fill="url(#paint0_linear_1338_4077)" shape-rendering="crispEdges"/>
</g>
<path d="M60.3136 51.6705L55.2421 46.599C53.4309 44.7878 50.3518 45.5124 49.6273 47.8669C49.0839 49.4971 47.2727 50.4027 45.6425 50.0404C42.0201 49.1348 37.1297 44.4256 36.2241 40.622C35.6807 38.9918 36.7675 37.1805 38.3976 36.6372C40.7522 35.9127 41.4767 32.8336 39.6654 31.0224L34.594 25.9509C33.145 24.683 30.9715 24.683 29.7036 25.9509L26.2623 29.3923C22.8209 33.0147 26.6245 42.6143 35.1373 51.1271C43.6502 59.64 53.2498 63.6248 56.8722 60.0022L60.3136 56.5609C61.5815 55.1119 61.5815 52.9384 60.3136 51.6705Z" fill="black"/>
<defs>
<filter id="filter0_di_1338_4077" x="0.304593" y="0.304593" width="86.3908" height="86.3908" filterUnits="userSpaceOnUse" color-interpolation-filters="sRGB">
<feFlood flood-opacity="0" result="BackgroundImageFix"/>
<feColorMatrix in="SourceAlpha" type="matrix" values="0 0 0 0 0 0 0 0 0 0 0 0 0 0 0 0 0 0 127 0" result="hardAlpha"/>
<feOffset/>
<feGaussianBlur stdDeviation="3.3477"/>
<feComposite in2="hardAlpha" operator="out"/>
<feColorMatrix type="matrix" values="0 0 0 0 0 0 0 0 0 0 0 0 0 0 0 0 0 0 0.44 0"/>
<feBlend mode="normal" in2="BackgroundImageFix" result="effect1_dropShadow_1338_4077"/>
<feBlend mode="normal" in="SourceGraphic" in2="effect1_dropShadow_1338_4077" result="shape"/>
<feColorMatrix in="SourceAlpha" type="matrix" values="0 0 0 0 0 0 0 0 0 0 0 0 0 0 0 0 0 0 127 0" result="hardAlpha"/>
<feOffset/>
<feGaussianBlur stdDeviation="3.3477"/>
<feComposite in2="hardAlpha" operator="arithmetic" k2="-1" k3="1"/>
<feColorMatrix type="matrix" values="0 0 0 0 0 0 0 0 0 0 0 0 0 0 0 0 0 0 0.25 0"/>
<feBlend mode="normal" in2="shape" result="effect2_innerShadow_1338_4077"/>
</filter>
<linearGradient id="paint0_linear_1338_4077" x1="27.3558" y1="6.99999" x2="150.906" y2="43.8093" gradientUnits="userSpaceOnUse">
<stop stop-color="#F9BF4F"/>
<stop offset="1" stop-color="white" stop-opacity="0"/>
</linearGradient>
</defs>
</svg>
