<svg width="32" height="32" viewBox="0 0 32 32" fill="none" xmlns="http://www.w3.org/2000/svg">
<circle cx="16" cy="16" r="15.5" stroke="#E2BC72"/>
<path d="M21.8938 15.4996H16.4938V10.0996C16.4938 9.82346 16.2699 9.59961 15.9938 9.59961C15.7176 9.59961 15.4938 9.82346 15.4938 10.0996V15.4996H10.0938C9.8176 15.4996 9.59375 15.7235 9.59375 15.9996C9.59375 16.2758 9.8176 16.4996 10.0938 16.4996H15.4938V21.8996C15.4938 22.1758 15.7176 22.3996 15.9938 22.3996C16.2699 22.3996 16.4938 22.1758 16.4938 21.8996V16.4996H21.8938C22.1699 16.4996 22.3938 16.2758 22.3938 15.9996C22.3938 15.7235 22.1699 15.4996 21.8938 15.4996Z" fill="#E2BC72"/>
</svg>
