<svg width="109" height="43" viewBox="0 0 109 43" fill="none" xmlns="http://www.w3.org/2000/svg">
<g filter="url(#filter0_di_1215_4078)">
<path d="M7 16.56C7 11.2802 11.2802 7 16.56 7H101.692V35.6946H7V16.56Z" fill="black"/>
</g>
<path d="M37.3874 19.5074C37.3874 19.8554 37.3035 20.1816 37.1357 20.4861C36.9741 20.7906 36.7163 21.036 36.3621 21.2224C36.0141 21.4089 35.5729 21.5021 35.0385 21.5021H33.948V24H32.6431V17.4942H35.0385C35.5419 17.4942 35.9706 17.5812 36.3248 17.7551C36.679 17.9291 36.9431 18.1684 37.1171 18.4728C37.2973 18.7773 37.3874 19.1222 37.3874 19.5074ZM34.9826 20.4488C35.343 20.4488 35.6102 20.368 35.7842 20.2065C35.9582 20.0387 36.0452 19.8057 36.0452 19.5074C36.0452 18.8736 35.691 18.5567 34.9826 18.5567H33.948V20.4488H34.9826ZM39.6187 19.6379C39.7865 19.3645 40.004 19.1501 40.2712 18.9948C40.5446 18.8395 40.8553 18.7618 41.2032 18.7618V20.1319H40.8584C40.4482 20.1319 40.1376 20.2282 39.9263 20.4209C39.7212 20.6135 39.6187 20.949 39.6187 21.4275V24H38.3138V18.8363H39.6187V19.6379ZM46.8823 21.3063C46.8823 21.4927 46.8699 21.6605 46.845 21.8096H43.0701C43.1012 22.1825 43.2317 22.4745 43.4616 22.6858C43.6915 22.8971 43.9742 23.0027 44.3098 23.0027C44.7945 23.0027 45.1393 22.7945 45.3444 22.3782H46.7518C46.6027 22.8753 46.3168 23.2854 45.8943 23.6085C45.4718 23.9254 44.9529 24.0839 44.3377 24.0839C43.8406 24.0839 43.3932 23.9751 42.9956 23.7577C42.6041 23.534 42.2965 23.2202 42.0728 22.8163C41.8553 22.4124 41.7466 21.9463 41.7466 21.4182C41.7466 20.8838 41.8553 20.4146 42.0728 20.0107C42.2903 19.6069 42.5948 19.2962 42.9862 19.0787C43.3777 18.8612 43.8282 18.7525 44.3377 18.7525C44.8286 18.7525 45.2667 18.8581 45.652 19.0694C46.0434 19.2806 46.3448 19.582 46.5561 19.9735C46.7735 20.3587 46.8823 20.803 46.8823 21.3063ZM45.5308 20.9335C45.5246 20.598 45.4034 20.3308 45.1673 20.1319C44.9312 19.9269 44.6422 19.8243 44.3005 19.8243C43.9773 19.8243 43.7039 19.9238 43.4802 20.1226C43.2628 20.3152 43.1292 20.5855 43.0794 20.9335H45.5308ZM54.2474 18.7618C54.8812 18.7618 55.3907 18.9575 55.776 19.349C56.1674 19.7342 56.3632 20.2748 56.3632 20.9708V24H55.0583V21.1479C55.0583 20.744 54.9557 20.4364 54.7507 20.2251C54.5456 20.0076 54.266 19.8989 53.9118 19.8989C53.5576 19.8989 53.2749 20.0076 53.0636 20.2251C52.8586 20.4364 52.7561 20.744 52.7561 21.1479V24H51.4512V21.1479C51.4512 20.744 51.3486 20.4364 51.1436 20.2251C50.9385 20.0076 50.6589 19.8989 50.3047 19.8989C49.9443 19.8989 49.6585 20.0076 49.4472 20.2251C49.2422 20.4364 49.1396 20.744 49.1396 21.1479V24H47.8347V18.8363H49.1396V19.4608C49.3074 19.2433 49.5218 19.0725 49.7828 18.9482C50.05 18.8239 50.342 18.7618 50.6589 18.7618C51.0628 18.7618 51.4232 18.8488 51.7401 19.0228C52.057 19.1905 52.3025 19.4329 52.4764 19.7498C52.6442 19.4515 52.8865 19.2123 53.2035 19.0321C53.5266 18.8519 53.8745 18.7618 54.2474 18.7618ZM58.2632 18.2212C58.0333 18.2212 57.8407 18.1497 57.6853 18.0068C57.5362 17.8577 57.4616 17.6744 57.4616 17.4569C57.4616 17.2394 57.5362 17.0592 57.6853 16.9163C57.8407 16.7672 58.0333 16.6926 58.2632 16.6926C58.4931 16.6926 58.6826 16.7672 58.8318 16.9163C58.9871 17.0592 59.0648 17.2394 59.0648 17.4569C59.0648 17.6744 58.9871 17.8577 58.8318 18.0068C58.6826 18.1497 58.4931 18.2212 58.2632 18.2212ZM58.9063 18.8363V24H57.6014V18.8363H58.9063ZM65.0703 18.8363V24H63.7561V23.3476C63.5883 23.5712 63.3677 23.7483 63.0943 23.8788C62.8271 24.0031 62.5351 24.0652 62.2181 24.0652C61.8143 24.0652 61.457 23.9814 61.1463 23.8136C60.8356 23.6396 60.5901 23.3879 60.4099 23.0586C60.236 22.7231 60.149 22.3254 60.149 21.8656V18.8363H61.4539V21.6792C61.4539 22.0893 61.5564 22.4062 61.7614 22.6299C61.9665 22.8473 62.2461 22.9561 62.6003 22.9561C62.9607 22.9561 63.2434 22.8473 63.4485 22.6299C63.6535 22.4062 63.7561 22.0893 63.7561 21.6792V18.8363H65.0703ZM72.7704 18.7618C73.4042 18.7618 73.9137 18.9575 74.299 19.349C74.6905 19.7342 74.8862 20.2748 74.8862 20.9708V24H73.5813V21.1479C73.5813 20.744 73.4788 20.4364 73.2737 20.2251C73.0687 20.0076 72.789 19.8989 72.4349 19.8989C72.0807 19.8989 71.7979 20.0076 71.5867 20.2251C71.3816 20.4364 71.2791 20.744 71.2791 21.1479V24H69.9742V21.1479C69.9742 20.744 69.8717 20.4364 69.6666 20.2251C69.4616 20.0076 69.1819 19.8989 68.8277 19.8989C68.4673 19.8989 68.1815 20.0076 67.9702 20.2251C67.7652 20.4364 67.6627 20.744 67.6627 21.1479V24H66.3578V18.8363H67.6627V19.4608C67.8304 19.2433 68.0448 19.0725 68.3058 18.9482C68.573 18.8239 68.865 18.7618 69.1819 18.7618C69.5858 18.7618 69.9462 18.8488 70.2631 19.0228C70.58 19.1905 70.8255 19.4329 70.9995 19.7498C71.1672 19.4515 71.4096 19.2123 71.7265 19.0321C72.0496 18.8519 72.3976 18.7618 72.7704 18.7618Z" fill="white"/>
<defs>
<filter id="filter0_di_1215_4078" x="0.304593" y="0.304593" width="108.083" height="42.0851" filterUnits="userSpaceOnUse" color-interpolation-filters="sRGB">
<feFlood flood-opacity="0" result="BackgroundImageFix"/>
<feColorMatrix in="SourceAlpha" type="matrix" values="0 0 0 0 0 0 0 0 0 0 0 0 0 0 0 0 0 0 127 0" result="hardAlpha"/>
<feOffset/>
<feGaussianBlur stdDeviation="3.3477"/>
<feComposite in2="hardAlpha" operator="out"/>
<feColorMatrix type="matrix" values="0 0 0 0 0 0 0 0 0 0 0 0 0 0 0 0 0 0 0.44 0"/>
<feBlend mode="normal" in2="BackgroundImageFix" result="effect1_dropShadow_1215_4078"/>
<feBlend mode="normal" in="SourceGraphic" in2="effect1_dropShadow_1215_4078" result="shape"/>
<feColorMatrix in="SourceAlpha" type="matrix" values="0 0 0 0 0 0 0 0 0 0 0 0 0 0 0 0 0 0 127 0" result="hardAlpha"/>
<feOffset/>
<feGaussianBlur stdDeviation="3.3477"/>
<feComposite in2="hardAlpha" operator="arithmetic" k2="-1" k3="1"/>
<feColorMatrix type="matrix" values="0 0 0 0 0 0 0 0 0 0 0 0 0 0 0 0 0 0 0.25 0"/>
<feBlend mode="normal" in2="shape" result="effect2_innerShadow_1215_4078"/>
</filter>
</defs>
</svg>
