<svg width="51" height="49" viewBox="0 0 51 49" fill="none" xmlns="http://www.w3.org/2000/svg">
<path d="M12.7685 0.494987C12.6823 0.344576 12.5579 0.219598 12.4078 0.132684C12.2578 0.0457702 12.0875 0 11.9141 0C11.7407 0 11.5704 0.0457702 11.4204 0.132684C11.2704 0.219598 11.1459 0.344576 11.0597 0.494987L0.13196 19.701C0.0453465 19.851 -0.000170653 20.0212 4.80791e-07 20.1945C0.000171615 20.3677 0.0460248 20.5378 0.132934 20.6876C0.219843 20.8375 0.344735 20.9618 0.495008 21.0479C0.645282 21.1341 0.815622 21.1791 0.988844 21.1784H22.8394C23.0147 21.1835 23.1882 21.1418 23.3419 21.0574C23.4957 20.973 23.6241 20.8492 23.714 20.6986C23.8038 20.548 23.8519 20.3761 23.8531 20.2007C23.8543 20.0254 23.8087 19.8529 23.7209 19.701L12.7685 0.494987ZM2.67799 19.2086L11.9018 2.9573L21.1453 19.2086H2.67799ZM32.5852 21.1784H44.4043C45.4492 21.1784 46.4513 20.7633 47.1901 20.0245C47.929 19.2857 48.344 18.2836 48.344 17.2387V5.41961C48.344 4.37474 47.929 3.37266 47.1901 2.63382C46.4513 1.89499 45.4492 1.47991 44.4043 1.47991H32.5852C31.5404 1.47991 30.5383 1.89499 29.7994 2.63382C29.0606 3.37266 28.6455 4.37474 28.6455 5.41961V17.2387C28.6455 18.2836 29.0606 19.2857 29.7994 20.0245C30.5383 20.7633 31.5404 21.1784 32.5852 21.1784ZM30.6154 5.41961C30.6154 4.89717 30.8229 4.39614 31.1923 4.02672C31.5618 3.6573 32.0628 3.44976 32.5852 3.44976H44.4043C44.9268 3.44976 45.4278 3.6573 45.7972 4.02672C46.1666 4.39614 46.3742 4.89717 46.3742 5.41961V17.2387C46.3742 17.7611 46.1666 18.2622 45.7972 18.6316C45.4278 19.001 44.9268 19.2086 44.4043 19.2086H32.5852C32.0628 19.2086 31.5618 19.001 31.1923 18.6316C30.8229 18.2622 30.6154 17.7611 30.6154 17.2387V5.41961ZM49.0384 34.273L41.159 26.3936C40.8092 26.0437 40.3938 25.7661 39.9367 25.5767C39.4795 25.3873 38.9896 25.2898 38.4948 25.2898C38 25.2898 37.51 25.3873 37.0529 25.5767C36.5957 25.7661 36.1804 26.0437 35.8306 26.3936L27.9512 34.273C27.2469 34.9808 26.8515 35.9387 26.8515 36.9372C26.8515 37.9357 27.2469 38.8936 27.9512 39.6014L35.8306 47.4808C36.1804 47.8307 36.5957 48.1083 37.0529 48.2977C37.51 48.4871 38 48.5846 38.4948 48.5846C38.9896 48.5846 39.4795 48.4871 39.9367 48.2977C40.3938 48.1083 40.8092 47.8307 41.159 47.4808L49.0384 39.6014C49.7415 38.893 50.1361 37.9353 50.1361 36.9372C50.1361 35.9391 49.7415 34.9814 49.0384 34.273ZM47.6447 38.2127L39.7653 46.0921C39.4276 46.4277 38.9709 46.6161 38.4948 46.6161C38.0187 46.6161 37.5619 46.4277 37.2242 46.0921L29.3448 38.2127C29.1775 38.0461 29.0447 37.8481 28.954 37.6301C28.8634 37.412 28.8168 37.1783 28.8168 36.9421C28.8168 36.706 28.8634 36.4722 28.954 36.2542C29.0447 36.0361 29.1775 35.8381 29.3448 35.6716L37.2242 27.7922C37.5656 27.4636 38.021 27.28 38.4948 27.28C38.9686 27.28 39.424 27.4636 39.7653 27.7922L47.6447 35.6716C47.9815 36.0086 48.1707 36.4656 48.1707 36.9421C48.1707 37.4186 47.9815 37.8756 47.6447 38.2127ZM11.9018 26.103C9.75901 26.103 7.66434 26.7384 5.88267 27.9289C4.101 29.1194 2.71235 30.8115 1.89234 32.7911C1.07233 34.7708 0.857775 36.9492 1.27581 39.0508C1.69385 41.1525 2.72571 43.0829 4.24089 44.5981C5.75608 46.1133 7.68654 47.1452 9.78817 47.5632C11.8898 47.9812 14.0682 47.7667 16.0479 46.9467C18.0276 46.1267 19.7196 44.738 20.9101 42.9563C22.1006 41.1747 22.736 39.08 22.736 36.9372C22.736 35.5144 22.4557 34.1056 21.9113 32.7911C21.3668 31.4767 20.5688 30.2823 19.5627 29.2763C18.5567 28.2702 17.3623 27.4722 16.0479 26.9277C14.7334 26.3833 13.3246 26.103 11.9018 26.103ZM11.9018 45.8015C10.1486 45.8015 8.43479 45.2816 6.97706 44.3076C5.51933 43.3336 4.38316 41.9492 3.71224 40.3294C3.04132 38.7097 2.86578 36.9274 3.20781 35.2079C3.54984 33.4883 4.39409 31.9089 5.63379 30.6692C6.87349 29.4295 8.45296 28.5852 10.1725 28.2432C11.892 27.9012 13.6743 28.0767 15.294 28.7476C16.9138 29.4186 18.2982 30.5547 19.2722 32.0124C20.2463 33.4702 20.7661 35.184 20.7661 36.9372C20.7661 39.2882 19.8322 41.5428 18.1698 43.2052C16.5075 44.8676 14.2528 45.8015 11.9018 45.8015Z" fill="black"/>
</svg>
