<svg width="109" height="43" viewBox="0 0 109 43" fill="none" xmlns="http://www.w3.org/2000/svg">
<g filter="url(#filter0_di_362_432)">
<path d="M7 16.56C7 11.2802 11.2802 7 16.56 7H101.692V35.6946H7V16.56Z" fill="black"/>
</g>
<path d="M34.8894 24.0652C34.4358 24.0652 34.0257 23.9876 33.6591 23.8322C33.2987 23.6769 33.0128 23.4532 32.8016 23.1611C32.5903 22.8691 32.4816 22.5242 32.4754 22.1265H33.8735C33.8921 22.3937 33.9853 22.605 34.1531 22.7603C34.3271 22.9157 34.5632 22.9934 34.8614 22.9934C35.1659 22.9934 35.4052 22.9219 35.5791 22.779C35.7531 22.6299 35.8401 22.4372 35.8401 22.2011C35.8401 22.0085 35.7811 21.85 35.663 21.7258C35.545 21.6015 35.3958 21.5052 35.2156 21.4368C35.0416 21.3622 34.7993 21.2815 34.4886 21.1945C34.0661 21.0702 33.7212 20.949 33.454 20.831C33.193 20.7067 32.9662 20.5234 32.7736 20.281C32.5872 20.0325 32.494 19.7032 32.494 19.2931C32.494 18.9078 32.5903 18.5723 32.7829 18.2864C32.9756 18.0006 33.2459 17.7831 33.5938 17.634C33.9418 17.4786 34.3395 17.401 34.7869 17.401C35.458 17.401 36.0017 17.5656 36.418 17.895C36.8405 18.2181 37.0736 18.6717 37.1171 19.2558H35.6817C35.6692 19.0321 35.5729 18.8488 35.3927 18.7059C35.2187 18.5567 34.9857 18.4822 34.6937 18.4822C34.4389 18.4822 34.2339 18.5474 34.0785 18.6779C33.9294 18.8084 33.8548 18.9979 33.8548 19.2465C33.8548 19.4204 33.9107 19.5665 34.0226 19.6845C34.1406 19.7964 34.2836 19.8896 34.4513 19.9641C34.6253 20.0325 34.8677 20.1133 35.1784 20.2065C35.6009 20.3308 35.9458 20.455 36.2129 20.5793C36.4801 20.7036 36.71 20.89 36.9027 21.1386C37.0953 21.3871 37.1916 21.7133 37.1916 22.1172C37.1916 22.4652 37.1015 22.7883 36.9213 23.0866C36.7411 23.3848 36.477 23.6241 36.1291 23.8043C35.7811 23.9783 35.3679 24.0652 34.8894 24.0652ZM39.8422 19.9082V22.4062C39.8422 22.5801 39.8826 22.7075 39.9634 22.7883C40.0503 22.8629 40.1933 22.9002 40.3921 22.9002H40.998V24H40.1777C39.0779 24 38.528 23.4656 38.528 22.3968V19.9082H37.9128V18.8363H38.528V17.5594H39.8422V18.8363H40.998V19.9082H39.8422ZM41.601 21.3995C41.601 20.8776 41.7035 20.4146 41.9085 20.0107C42.1198 19.6069 42.4025 19.2962 42.7567 19.0787C43.1171 18.8612 43.5179 18.7525 43.9591 18.7525C44.3443 18.7525 44.6799 18.8301 44.9657 18.9855C45.2578 19.1408 45.4908 19.3366 45.6648 19.5727V18.8363H46.979V24H45.6648V23.245C45.497 23.4874 45.264 23.6893 44.9657 23.8509C44.6737 24.0062 44.335 24.0839 43.9498 24.0839C43.5148 24.0839 43.1171 23.972 42.7567 23.7483C42.4025 23.5246 42.1198 23.2108 41.9085 22.807C41.7035 22.3968 41.601 21.9277 41.601 21.3995ZM45.6648 21.4182C45.6648 21.1013 45.6026 20.831 45.4784 20.6073C45.3541 20.3774 45.1863 20.2034 44.975 20.0853C44.7638 19.961 44.537 19.8989 44.2946 19.8989C44.0523 19.8989 43.8286 19.9579 43.6235 20.076C43.4185 20.1941 43.2507 20.368 43.1202 20.598C42.9959 20.8216 42.9338 21.0888 42.9338 21.3995C42.9338 21.7102 42.9959 21.9836 43.1202 22.2198C43.2507 22.4497 43.4185 22.6268 43.6235 22.751C43.8348 22.8753 44.0585 22.9374 44.2946 22.9374C44.537 22.9374 44.7638 22.8784 44.975 22.7603C45.1863 22.6361 45.3541 22.4621 45.4784 22.2384C45.6026 22.0085 45.6648 21.7351 45.6648 21.4182ZM51.1149 18.7618C51.7301 18.7618 52.2272 18.9575 52.6062 19.349C52.9852 19.7342 53.1748 20.2748 53.1748 20.9708V24H51.8699V21.1479C51.8699 20.7378 51.7673 20.424 51.5623 20.2065C51.3572 19.9828 51.0776 19.8709 50.7234 19.8709C50.363 19.8709 50.0772 19.9828 49.8659 20.2065C49.6609 20.424 49.5583 20.7378 49.5583 21.1479V24H48.2534V18.8363H49.5583V19.4795C49.7323 19.2558 49.9529 19.0818 50.2201 18.9575C50.4935 18.827 50.7918 18.7618 51.1149 18.7618ZM54.0801 21.3995C54.0801 20.8776 54.1826 20.4146 54.3877 20.0107C54.599 19.6069 54.8848 19.2962 55.2452 19.0787C55.6056 18.8612 56.0064 18.7525 56.4476 18.7525C56.7831 18.7525 57.1031 18.827 57.4076 18.9762C57.7121 19.1191 57.9544 19.3117 58.1346 19.554V17.1027H59.4581V24H58.1346V23.2357C57.973 23.4905 57.7462 23.6955 57.4542 23.8509C57.1621 24.0062 56.8235 24.0839 56.4382 24.0839C56.0033 24.0839 55.6056 23.972 55.2452 23.7483C54.8848 23.5246 54.599 23.2108 54.3877 22.807C54.1826 22.3968 54.0801 21.9277 54.0801 21.3995ZM58.1439 21.4182C58.1439 21.1013 58.0818 20.831 57.9575 20.6073C57.8332 20.3774 57.6655 20.2034 57.4542 20.0853C57.2429 19.961 57.0161 19.8989 56.7738 19.8989C56.5314 19.8989 56.3077 19.9579 56.1027 20.076C55.8976 20.1941 55.7299 20.368 55.5994 20.598C55.4751 20.8216 55.413 21.0888 55.413 21.3995C55.413 21.7102 55.4751 21.9836 55.5994 22.2198C55.7299 22.4497 55.8976 22.6268 56.1027 22.751C56.314 22.8753 56.5377 22.9374 56.7738 22.9374C57.0161 22.9374 57.2429 22.8784 57.4542 22.7603C57.6655 22.6361 57.8332 22.4621 57.9575 22.2384C58.0818 22.0085 58.1439 21.7351 58.1439 21.4182ZM62.0375 19.6379C62.2053 19.3645 62.4227 19.1501 62.6899 18.9948C62.9633 18.8395 63.274 18.7618 63.622 18.7618V20.1319H63.2771C62.867 20.1319 62.5563 20.2282 62.3451 20.4209C62.14 20.6135 62.0375 20.949 62.0375 21.4275V24H60.7326V18.8363H62.0375V19.6379ZM64.1654 21.3995C64.1654 20.8776 64.2679 20.4146 64.473 20.0107C64.6842 19.6069 64.9669 19.2962 65.3211 19.0787C65.6815 18.8612 66.0823 18.7525 66.5235 18.7525C66.9088 18.7525 67.2443 18.8301 67.5301 18.9855C67.8222 19.1408 68.0552 19.3366 68.2292 19.5727V18.8363H69.5434V24H68.2292V23.245C68.0614 23.4874 67.8284 23.6893 67.5301 23.8509C67.2381 24.0062 66.8994 24.0839 66.5142 24.0839C66.0792 24.0839 65.6815 23.972 65.3211 23.7483C64.9669 23.5246 64.6842 23.2108 64.473 22.807C64.2679 22.3968 64.1654 21.9277 64.1654 21.3995ZM68.2292 21.4182C68.2292 21.1013 68.167 20.831 68.0428 20.6073C67.9185 20.3774 67.7507 20.2034 67.5395 20.0853C67.3282 19.961 67.1014 19.8989 66.859 19.8989C66.6167 19.8989 66.393 19.9579 66.188 20.076C65.9829 20.1941 65.8151 20.368 65.6846 20.598C65.5604 20.8216 65.4982 21.0888 65.4982 21.3995C65.4982 21.7102 65.5604 21.9836 65.6846 22.2198C65.8151 22.4497 65.9829 22.6268 66.188 22.751C66.3992 22.8753 66.6229 22.9374 66.859 22.9374C67.1014 22.9374 67.3282 22.8784 67.5395 22.7603C67.7507 22.6361 67.9185 22.4621 68.0428 22.2384C68.167 22.0085 68.2292 21.7351 68.2292 21.4182ZM70.4823 21.3995C70.4823 20.8776 70.5848 20.4146 70.7899 20.0107C71.0012 19.6069 71.287 19.2962 71.6474 19.0787C72.0078 18.8612 72.4086 18.7525 72.8498 18.7525C73.1853 18.7525 73.5053 18.827 73.8098 18.9762C74.1143 19.1191 74.3566 19.3117 74.5368 19.554V17.1027H75.8603V24H74.5368V23.2357C74.3753 23.4905 74.1484 23.6955 73.8564 23.8509C73.5644 24.0062 73.2257 24.0839 72.8404 24.0839C72.4055 24.0839 72.0078 23.972 71.6474 23.7483C71.287 23.5246 71.0012 23.2108 70.7899 22.807C70.5848 22.3968 70.4823 21.9277 70.4823 21.3995ZM74.5461 21.4182C74.5461 21.1013 74.484 20.831 74.3597 20.6073C74.2354 20.3774 74.0677 20.2034 73.8564 20.0853C73.6451 19.961 73.4183 19.8989 73.176 19.8989C72.9337 19.8989 72.71 19.9579 72.5049 20.076C72.2998 20.1941 72.1321 20.368 72.0016 20.598C71.8773 20.8216 71.8152 21.0888 71.8152 21.3995C71.8152 21.7102 71.8773 21.9836 72.0016 22.2198C72.1321 22.4497 72.2998 22.6268 72.5049 22.751C72.7162 22.8753 72.9399 22.9374 73.176 22.9374C73.4183 22.9374 73.6451 22.8784 73.8564 22.7603C74.0677 22.6361 74.2354 22.4621 74.3597 22.2384C74.484 22.0085 74.5461 21.7351 74.5461 21.4182Z" fill="white"/>
<defs>
<filter id="filter0_di_362_432" x="0.304593" y="0.304593" width="108.083" height="42.0851" filterUnits="userSpaceOnUse" color-interpolation-filters="sRGB">
<feFlood flood-opacity="0" result="BackgroundImageFix"/>
<feColorMatrix in="SourceAlpha" type="matrix" values="0 0 0 0 0 0 0 0 0 0 0 0 0 0 0 0 0 0 127 0" result="hardAlpha"/>
<feOffset/>
<feGaussianBlur stdDeviation="3.3477"/>
<feComposite in2="hardAlpha" operator="out"/>
<feColorMatrix type="matrix" values="0 0 0 0 0 0 0 0 0 0 0 0 0 0 0 0 0 0 0.44 0"/>
<feBlend mode="normal" in2="BackgroundImageFix" result="effect1_dropShadow_362_432"/>
<feBlend mode="normal" in="SourceGraphic" in2="effect1_dropShadow_362_432" result="shape"/>
<feColorMatrix in="SourceAlpha" type="matrix" values="0 0 0 0 0 0 0 0 0 0 0 0 0 0 0 0 0 0 127 0" result="hardAlpha"/>
<feOffset/>
<feGaussianBlur stdDeviation="3.3477"/>
<feComposite in2="hardAlpha" operator="arithmetic" k2="-1" k3="1"/>
<feColorMatrix type="matrix" values="0 0 0 0 0 0 0 0 0 0 0 0 0 0 0 0 0 0 0.25 0"/>
<feBlend mode="normal" in2="shape" result="effect2_innerShadow_362_432"/>
</filter>
</defs>
</svg>
