<svg width="95" height="23" viewBox="0 0 95 23" fill="none" xmlns="http://www.w3.org/2000/svg">
<g filter="url(#filter0_d_388_3245)">
<path d="M18.7462 10.1017C18.6494 9.8023 18.3839 9.58967 18.0697 9.56136L13.8024 9.17389L12.115 5.22437C11.9906 4.93492 11.7073 4.74756 11.3924 4.74756C11.0776 4.74756 10.7943 4.93492 10.6698 5.22505L8.98244 9.17389L4.71448 9.56136C4.40089 9.59035 4.13604 9.8023 4.03869 10.1017C3.94134 10.4011 4.03124 10.7294 4.26847 10.9364L7.49402 13.7652L6.54288 17.955C6.47328 18.2631 6.59285 18.5815 6.84846 18.7663C6.98585 18.8656 7.14659 18.9161 7.30869 18.9161C7.44845 18.9161 7.58708 18.8784 7.7115 18.804L11.3924 16.604L15.072 18.804C15.3413 18.966 15.6807 18.9512 15.9357 18.7663C16.1915 18.581 16.3109 18.2624 16.2413 17.955L15.2902 13.7652L18.5157 10.937C18.753 10.7294 18.8435 10.4016 18.7462 10.1017Z" fill="#FFA800"/>
</g>
<g filter="url(#filter1_d_388_3245)">
<path d="M36.5509 10.1017C36.4541 9.8023 36.1886 9.58967 35.8744 9.56136L31.6071 9.17389L29.9197 5.22437C29.7953 4.93492 29.512 4.74756 29.1971 4.74756C28.8823 4.74756 28.5989 4.93492 28.4745 5.22505L26.7871 9.17389L22.5192 9.56136C22.2056 9.59035 21.9407 9.8023 21.8434 10.1017C21.746 10.4011 21.8359 10.7294 22.0732 10.9364L25.2987 13.7652L24.3476 17.955C24.278 18.2631 24.3975 18.5815 24.6531 18.7663C24.7905 18.8656 24.9513 18.9161 25.1134 18.9161C25.2531 18.9161 25.3918 18.8784 25.5162 18.804L29.1971 16.604L32.8767 18.804C33.146 18.966 33.4854 18.9512 33.7404 18.7663C33.9962 18.581 34.1156 18.2624 34.046 17.955L33.0949 13.7652L36.3204 10.937C36.5576 10.7294 36.6482 10.4016 36.5509 10.1017Z" fill="#FFA800"/>
</g>
<g filter="url(#filter2_d_388_3245)">
<path d="M54.3536 10.1017C54.2568 9.8023 53.9913 9.58967 53.6771 9.56136L49.4099 9.17389L47.7225 5.22437C47.598 4.93492 47.3147 4.74756 46.9999 4.74756C46.685 4.74756 46.4017 4.93492 46.2773 5.22505L44.5899 9.17389L40.3219 9.56136C40.0083 9.59035 39.7435 9.8023 39.6461 10.1017C39.5488 10.4011 39.6387 10.7294 39.8759 10.9364L43.1014 13.7652L42.1503 17.955C42.0807 18.2631 42.2003 18.5815 42.4559 18.7663C42.5933 18.8656 42.754 18.9161 42.9161 18.9161C43.0559 18.9161 43.1945 18.8784 43.3189 18.804L46.9999 16.604L50.6794 18.804C50.9487 18.966 51.2881 18.9512 51.5432 18.7663C51.7989 18.581 51.9183 18.2624 51.8487 17.955L50.8976 13.7652L54.1232 10.937C54.3604 10.7294 54.451 10.4016 54.3536 10.1017Z" fill="#FFA800"/>
</g>
<g filter="url(#filter3_d_388_3245)">
<path d="M72.1583 10.1017C72.0615 9.8023 71.796 9.58967 71.4818 9.56136L67.2146 9.17389L65.5272 5.22437C65.4027 4.93492 65.1194 4.74756 64.8045 4.74756C64.4897 4.74756 64.2064 4.93492 64.0819 5.22505L62.3945 9.17389L58.1266 9.56136C57.813 9.59035 57.5481 9.8023 57.4508 10.1017C57.3535 10.4011 57.4434 10.7294 57.6806 10.9364L60.9061 13.7652L59.955 17.955C59.8854 18.2631 60.005 18.5815 60.2606 18.7663C60.398 18.8656 60.5587 18.9161 60.7208 18.9161C60.8606 18.9161 60.9992 18.8784 61.1236 18.804L64.8045 16.604L68.4841 18.804C68.7534 18.966 69.0928 18.9512 69.3479 18.7663C69.6036 18.581 69.723 18.2624 69.6534 17.955L68.7023 13.7652L71.9278 10.937C72.1651 10.7294 72.2556 10.4016 72.1583 10.1017Z" fill="#FFA800"/>
</g>
<g opacity="0.2" filter="url(#filter4_d_388_3245)">
<path d="M89.963 10.1017C89.8662 9.8023 89.6007 9.58967 89.2865 9.56136L85.0192 9.17389L83.3318 5.22437C83.2074 4.93492 82.9241 4.74756 82.6092 4.74756C82.2944 4.74756 82.0111 4.93492 81.8866 5.22505L80.1992 9.17389L75.9313 9.56136C75.6177 9.59035 75.3528 9.8023 75.2555 10.1017C75.1581 10.4011 75.248 10.7294 75.4853 10.9364L78.7108 13.7652L77.7597 17.955C77.6901 18.2631 77.8096 18.5815 78.0653 18.7663C78.2026 18.8656 78.3634 18.9161 78.5255 18.9161C78.6652 18.9161 78.8039 18.8784 78.9283 18.804L82.6092 16.604L86.2888 18.804C86.5581 18.966 86.8975 18.9512 87.1525 18.7663C87.4083 18.581 87.5277 18.2624 87.4581 17.955L86.507 13.7652L89.7325 10.937C89.9698 10.7294 90.0603 10.4016 89.963 10.1017Z" fill="black"/>
</g>
<defs>
<filter id="filter0_d_388_3245" x="0" y="0.747559" width="22.7852" height="22.1685" filterUnits="userSpaceOnUse" color-interpolation-filters="sRGB">
<feFlood flood-opacity="0" result="BackgroundImageFix"/>
<feColorMatrix in="SourceAlpha" type="matrix" values="0 0 0 0 0 0 0 0 0 0 0 0 0 0 0 0 0 0 127 0" result="hardAlpha"/>
<feOffset/>
<feGaussianBlur stdDeviation="2"/>
<feComposite in2="hardAlpha" operator="out"/>
<feColorMatrix type="matrix" values="0 0 0 0 0 0 0 0 0 0 0 0 0 0 0 0 0 0 0.38 0"/>
<feBlend mode="normal" in2="BackgroundImageFix" result="effect1_dropShadow_388_3245"/>
<feBlend mode="normal" in="SourceGraphic" in2="effect1_dropShadow_388_3245" result="shape"/>
</filter>
<filter id="filter1_d_388_3245" x="17.8047" y="0.747559" width="22.7852" height="22.1685" filterUnits="userSpaceOnUse" color-interpolation-filters="sRGB">
<feFlood flood-opacity="0" result="BackgroundImageFix"/>
<feColorMatrix in="SourceAlpha" type="matrix" values="0 0 0 0 0 0 0 0 0 0 0 0 0 0 0 0 0 0 127 0" result="hardAlpha"/>
<feOffset/>
<feGaussianBlur stdDeviation="2"/>
<feComposite in2="hardAlpha" operator="out"/>
<feColorMatrix type="matrix" values="0 0 0 0 0 0 0 0 0 0 0 0 0 0 0 0 0 0 0.38 0"/>
<feBlend mode="normal" in2="BackgroundImageFix" result="effect1_dropShadow_388_3245"/>
<feBlend mode="normal" in="SourceGraphic" in2="effect1_dropShadow_388_3245" result="shape"/>
</filter>
<filter id="filter2_d_388_3245" x="35.6074" y="0.747559" width="22.7852" height="22.1685" filterUnits="userSpaceOnUse" color-interpolation-filters="sRGB">
<feFlood flood-opacity="0" result="BackgroundImageFix"/>
<feColorMatrix in="SourceAlpha" type="matrix" values="0 0 0 0 0 0 0 0 0 0 0 0 0 0 0 0 0 0 127 0" result="hardAlpha"/>
<feOffset/>
<feGaussianBlur stdDeviation="2"/>
<feComposite in2="hardAlpha" operator="out"/>
<feColorMatrix type="matrix" values="0 0 0 0 0 0 0 0 0 0 0 0 0 0 0 0 0 0 0.38 0"/>
<feBlend mode="normal" in2="BackgroundImageFix" result="effect1_dropShadow_388_3245"/>
<feBlend mode="normal" in="SourceGraphic" in2="effect1_dropShadow_388_3245" result="shape"/>
</filter>
<filter id="filter3_d_388_3245" x="53.4121" y="0.747559" width="22.7852" height="22.1685" filterUnits="userSpaceOnUse" color-interpolation-filters="sRGB">
<feFlood flood-opacity="0" result="BackgroundImageFix"/>
<feColorMatrix in="SourceAlpha" type="matrix" values="0 0 0 0 0 0 0 0 0 0 0 0 0 0 0 0 0 0 127 0" result="hardAlpha"/>
<feOffset/>
<feGaussianBlur stdDeviation="2"/>
<feComposite in2="hardAlpha" operator="out"/>
<feColorMatrix type="matrix" values="0 0 0 0 0 0 0 0 0 0 0 0 0 0 0 0 0 0 0.38 0"/>
<feBlend mode="normal" in2="BackgroundImageFix" result="effect1_dropShadow_388_3245"/>
<feBlend mode="normal" in="SourceGraphic" in2="effect1_dropShadow_388_3245" result="shape"/>
</filter>
<filter id="filter4_d_388_3245" x="71.2168" y="0.747559" width="22.7852" height="22.1685" filterUnits="userSpaceOnUse" color-interpolation-filters="sRGB">
<feFlood flood-opacity="0" result="BackgroundImageFix"/>
<feColorMatrix in="SourceAlpha" type="matrix" values="0 0 0 0 0 0 0 0 0 0 0 0 0 0 0 0 0 0 127 0" result="hardAlpha"/>
<feOffset/>
<feGaussianBlur stdDeviation="2"/>
<feComposite in2="hardAlpha" operator="out"/>
<feColorMatrix type="matrix" values="0 0 0 0 0 0 0 0 0 0 0 0 0 0 0 0 0 0 0.38 0"/>
<feBlend mode="normal" in2="BackgroundImageFix" result="effect1_dropShadow_388_3245"/>
<feBlend mode="normal" in="SourceGraphic" in2="effect1_dropShadow_388_3245" result="shape"/>
</filter>
</defs>
</svg>
