<svg width="52" height="52" viewBox="0 0 52 52" fill="none" xmlns="http://www.w3.org/2000/svg">
<circle cx="26" cy="26" r="26" fill="#E2BC72" fill-opacity="0.2"/>
<path d="M26 11.0001C23.7935 11.0001 21.6948 11.4751 19.8066 12.3321C19.5482 12.4494 19.4391 12.7581 19.5664 13.0117L20.46 14.8018C20.58 15.0422 20.8684 15.1448 21.1133 15.0342C22.6058 14.3678 24.2578 14.001 26 14.001C32.6333 14.001 37.999 19.3667 37.999 26.0001C37.999 28.4954 37.231 30.8013 35.9287 32.7217L34.3525 31.1445C34.2448 31.0366 34.0938 30.9837 33.9424 31.0009C33.6897 31.0302 33.4993 31.2446 33.5 31.499V36.999C33.499 37.2751 33.7219 37.4998 33.998 37.5009H39.4971C39.9463 37.5047 40.1718 36.9596 39.8516 36.6445L38.0791 34.8721C39.9077 32.3861 41 29.3203 41 26C41 17.7216 34.2783 11 26 11V11.0001ZM12.498 14.4991C12.0534 14.4992 11.8301 15.0362 12.1436 15.3516L13.917 17.1251C12.0881 19.6113 11 22.6792 11 26.0001C11 34.2784 17.7217 41 26 41.0001C28.2065 41.0001 30.3052 40.5211 32.1934 39.6641C32.4514 39.5464 32.5601 39.2378 32.4326 38.9844L31.5361 37.1944C31.4163 36.9561 31.1305 36.8539 30.8867 36.962C29.3942 37.6284 27.7422 37.9991 26 37.9991C19.3667 37.9991 14.001 32.6334 14.001 26.0001C14.001 23.5056 14.7645 21.1969 16.0654 19.2764L17.6475 20.8545C17.9629 21.168 18.4998 20.9447 18.5 20.5V15.001C18.501 14.7234 18.2757 14.498 17.998 14.4991H12.498ZM25.999 17.9991C21.5867 17.9991 18.001 21.5887 18.001 26.001C18.001 30.4134 21.5867 33.9991 25.999 33.9991C30.4114 33.9991 34.001 30.4134 34.001 26.001C34.001 21.5887 30.4114 17.9991 25.999 17.9991ZM25.997 19.9962C26.2471 19.9962 26.497 20.1626 26.497 20.4961V21.5557C27.6351 21.7881 28.498 22.7996 28.498 24.0039C28.5131 24.6856 27.4829 24.6856 27.498 24.0039C27.498 23.1696 26.8333 22.5059 25.999 22.5059C25.1646 22.5059 24.5009 23.1696 24.5009 24.0039C24.5009 24.8383 25.1646 25.503 25.999 25.503C27.3738 25.503 28.498 26.6301 28.498 28.0049C28.498 29.2093 27.6351 30.2217 26.497 30.4542V31.5039C26.497 32.1708 25.497 32.1708 25.497 31.5039V30.4532C24.3609 30.2192 23.5009 29.2079 23.5009 28.0049C23.5154 27.3529 24.4858 27.3529 24.5009 28.0049C24.5009 28.8393 25.1646 29.504 25.999 29.504C26.8333 29.504 27.498 28.8393 27.498 28.0049C27.498 27.1706 26.8333 26.5029 25.999 26.5029C24.6242 26.5029 23.5009 25.3787 23.5009 24.0039C23.5009 22.801 24.3609 21.7906 25.497 21.5567V20.4961C25.497 20.1627 25.747 19.9962 25.997 19.9962Z" fill="#E2BC72"/>
</svg>
