<svg width="52" height="52" viewBox="0 0 52 52" fill="none" xmlns="http://www.w3.org/2000/svg">
<path d="M47.8947 0H4.10526C1.83799 0 0 1.83799 0 4.10526V47.8947C0 50.162 1.83799 52 4.10526 52H47.8947C50.162 52 52 50.162 52 47.8947V4.10526C52 1.83799 50.162 0 47.8947 0Z" fill="#03A9F4"/>
<path d="M42.8414 15.5557C41.5746 16.109 40.2345 16.4765 38.8627 16.647C40.3088 15.7895 41.3898 14.4309 41.9006 12.8291C40.5471 13.6325 39.0661 14.1983 37.5217 14.502C36.5753 13.4899 35.3462 12.786 33.9943 12.4818C32.6425 12.1777 31.2304 12.2874 29.9417 12.7967C28.653 13.3059 27.5474 14.1912 26.7687 15.3373C25.99 16.4835 25.5742 17.8374 25.5753 19.2231C25.5705 19.752 25.6244 20.2798 25.7361 20.7967C22.9889 20.6618 20.3011 19.9488 17.8482 18.7044C15.3953 17.46 13.2325 15.7121 11.5011 13.5749C10.6112 15.0952 10.3355 16.8981 10.7303 18.6149C11.1252 20.3318 12.1609 21.833 13.6256 22.8117C12.5323 22.7823 11.4622 22.4901 10.5056 21.9599V22.0352C10.5087 23.6288 11.0603 25.1728 12.0677 26.4076C13.0751 27.6424 14.4769 28.4927 16.0374 28.8157C15.4469 28.9709 14.8383 29.0468 14.2277 29.0415C13.7881 29.0496 13.3488 29.0106 12.9174 28.9252C13.3645 30.2957 14.2253 31.4941 15.3813 32.3554C16.5373 33.2168 17.9318 33.6988 19.373 33.7352C16.9308 35.6441 13.9201 36.681 10.8203 36.6807C10.268 36.6854 9.71603 36.6534 9.16797 36.5849C12.3286 38.6227 16.0127 39.6994 19.7732 39.6844C32.4824 39.6844 39.4306 29.1578 39.4306 20.0338C39.4306 19.7294 39.4306 19.4352 39.4067 19.141C40.7598 18.1644 41.9237 16.9495 42.8414 15.5557Z" fill="white"/>
</svg>
