<svg width="52" height="52" viewBox="0 0 52 52" fill="none" xmlns="http://www.w3.org/2000/svg">
<circle cx="26" cy="26" r="26" fill="#E2BC72" fill-opacity="0.2"/>
<path d="M39.3945 27.6071V18.5H37.2517V27.6071H35.6445L38.3231 30.8214L41.0017 27.6071H39.3945Z" fill="#E2BC72"/>
<path d="M14.75 20.1071V11H12.6071V20.1071H11L13.6786 23.3214L16.3571 20.1071H14.75Z" fill="#E2BC72"/>
<path d="M32.9626 11H20.1055V23.3536C20.5218 23.3943 20.9318 23.4842 21.3269 23.6214C21.5063 23.1548 21.8435 22.7658 22.2799 22.5219C22.7163 22.278 23.2243 22.1946 23.7157 22.2863C24.2072 22.3779 24.651 22.6388 24.9701 23.0237C25.2892 23.4085 25.4635 23.8929 25.4626 24.3929V28.0411L25.5055 28.1429H28.168C28.2927 26.9137 28.8379 25.7653 29.7115 24.8918C30.5851 24.0182 31.7335 23.4729 32.9626 23.3482V11ZM26.534 19.5714C25.7924 19.5714 25.0673 19.3515 24.4507 18.9394C23.834 18.5274 23.3533 17.9417 23.0695 17.2565C22.7857 16.5713 22.7114 15.8173 22.8561 15.0898C23.0008 14.3624 23.3579 13.6942 23.8824 13.1698C24.4068 12.6453 25.075 12.2882 25.8025 12.1435C26.5299 11.9988 27.2839 12.0731 27.9691 12.3569C28.6543 12.6407 29.24 13.1214 29.6521 13.738C30.0641 14.3547 30.284 15.0797 30.284 15.8214C30.2829 16.8156 29.8875 17.7688 29.1844 18.4718C28.4814 19.1748 27.5283 19.5703 26.534 19.5714Z" fill="#E2BC72"/>
<path d="M26.534 18.4997C28.0134 18.4997 29.2126 17.3005 29.2126 15.8211C29.2126 14.3418 28.0134 13.1426 26.534 13.1426C25.0547 13.1426 23.8555 14.3418 23.8555 15.8211C23.8555 17.3005 25.0547 18.4997 26.534 18.4997Z" fill="#E2BC72"/>
<path d="M32.9625 28.1432V24.4307C32.0196 24.5502 31.1433 24.9798 30.4712 25.6519C29.7992 26.3239 29.3696 27.2003 29.25 28.1432H32.9625Z" fill="#E2BC72"/>
<path d="M35.1066 11H34.0352V13.1429H35.1066C35.3901 13.1408 35.6614 13.0272 35.8619 12.8267C36.0624 12.6262 36.1759 12.3549 36.178 12.0714C36.1772 11.7875 36.064 11.5155 35.8633 11.3148C35.6625 11.114 35.3905 11.0008 35.1066 11Z" fill="#E2BC72"/>
<path d="M16.3555 37.7852H24.9269V40.9994H16.3555V37.7852Z" fill="#E2BC72"/>
<path d="M21.1769 24.7146C20.8342 24.572 20.4738 24.4765 20.1055 24.4307V28.1432H21.1769V24.7146Z" fill="#E2BC72"/>
<path d="M17.966 13.1429H19.0374V11H17.966C17.6824 11.0021 17.4111 11.1157 17.2107 11.3161C17.0102 11.5166 16.8966 11.7879 16.8945 12.0714C16.8954 12.3553 17.0085 12.6274 17.2093 12.8281C17.41 13.0289 17.6821 13.142 17.966 13.1429Z" fill="#E2BC72"/>
<path d="M19.0363 28.6787V20.9697L17.697 23.2947C16.8344 24.777 16.4719 26.4976 16.6631 28.2019L17.4238 35.0483C17.4282 35.0676 17.43 35.0874 17.4291 35.1072V36.7144H23.8577C23.8577 36.6182 23.8836 36.5238 23.9327 36.4412L24.7738 35.0376C25.227 34.2878 25.4661 33.428 25.4649 32.5519V31.8554C25.4664 31.242 25.3481 30.6342 25.1166 30.0662L24.4309 28.3412C24.4051 28.2783 24.3924 28.2109 24.3934 28.1429V24.3929C24.3913 24.1094 24.2778 23.8381 24.0773 23.6376C23.8768 23.4372 23.6055 23.3236 23.322 23.3215C23.0381 23.3224 22.7661 23.4355 22.5653 23.6363C22.3646 23.837 22.2514 24.109 22.2506 24.3929V29.7501H21.1791V29.2144H19.572C19.4299 29.2144 19.2937 29.1579 19.1932 29.0575C19.0927 28.957 19.0363 28.8207 19.0363 28.6787Z" fill="#E2BC72"/>
</svg>
