<svg width="50" height="36" viewBox="0 0 50 36" fill="none" xmlns="http://www.w3.org/2000/svg">
<path d="M48.9698 5.47788C48.3934 3.33594 46.7047 1.64756 44.5631 1.07078C40.6504 0 24.9995 0 24.9995 0C24.9995 0 9.34902 0 5.4363 1.02996C3.33594 1.60636 1.60598 3.33632 1.02958 5.47788C0 9.39022 0 17.504 0 17.504C0 17.504 0 25.6587 1.02958 29.5302C1.60636 31.6718 3.29474 33.3605 5.43668 33.9373C9.39022 35.0081 24.9999 35.0081 24.9999 35.0081C24.9999 35.0081 40.6504 35.0081 44.5631 33.9781C46.7051 33.4017 48.3934 31.713 48.9702 29.5714C49.9998 25.6587 49.9998 17.5452 49.9998 17.5452C49.9998 17.5452 50.041 9.39022 48.9698 5.47788Z" fill="#FF0000"/>
<path d="M20.0156 24.9996L33.0302 17.5037L20.0156 10.0078V24.9996Z" fill="white"/>
</svg>
